<svg id="Layer_1" data-name="Layer 1" xmlns="http://www.w3.org/2000/svg" viewBox="0 0 1265.3 729.26"><title>uc-statement-online-new</title><rect x="15.5" y="360.3" width="268.1" height="55.36" style="fill:#efc319"/><path d="M295.9,434.7H0V0H295.9V434.7ZM5,429.7H290.9V5H5Z" style="fill:#a7a9ac"/><rect x="14.8" y="55.4" width="268.6" height="45" style="fill:#277cae"/><rect x="14.9" y="144" width="268.6" height="20" style="fill:#dee0e2"/><rect x="14.9" y="170.3" width="268.6" height="39.9" style="fill:#fff"/><path d="M284,210.7H14.4V169.8H284v40.9Zm-268.6-1H283V170.8H15.4Z" style="fill:#6b6b6b"/><rect x="14.9" y="216.6" width="268.6" height="39.9" style="fill:#fff"/><path d="M284,256.9H14.4V216H284v40.9Zm-268.6-1H283V217H15.4Z" style="fill:#6b6b6b"/><rect x="26" y="317.9" width="257.3" height="69.8" style="fill:none"/><rect x="26" y="107.6" width="257.3" height="26.4" style="fill:none"/><g style="isolation:isolate"><path d="M32.1,113.2H28.5v3.4H26.9v-8.1h1.6v3.2h3.6v-3.2h1.6v8.1H32.1Z"/><path d="M37.9,110.5a4.3,4.3,0,0,1,1.2.2,2,2,0,0,1,.9.7,3.33,3.33,0,0,1,.6,1,5,5,0,0,1,.2,1.2,4.3,4.3,0,0,1-.2,1.2,2.66,2.66,0,0,1-.6,1,5.5,5.5,0,0,1-.9.7,2.54,2.54,0,0,1-1.2.2,4.3,4.3,0,0,1-1.2-.2,2.18,2.18,0,0,1-.9-.7,3.33,3.33,0,0,1-.6-1,5,5,0,0,1-.2-1.2,4.3,4.3,0,0,1,.2-1.2,2.07,2.07,0,0,1,.6-1,5.5,5.5,0,0,1,.9-.7A3.73,3.73,0,0,1,37.9,110.5Zm0,4.8a1.27,1.27,0,0,0,.6-.1,1.38,1.38,0,0,0,.4-.3,2.19,2.19,0,0,0,.3-.5,1.48,1.48,0,0,0,.1-.7h0a1.7,1.7,0,0,0-.1-.7c-.1-.2-.1-.4-.3-.5s-.3-.3-.4-.3-.4-.1-.6-.1a1.27,1.27,0,0,0-.6.1,1.38,1.38,0,0,0-.4.3,2.19,2.19,0,0,0-.3.5,1.48,1.48,0,0,0-.1.7h0a1.7,1.7,0,0,0,.1.7c.1.2.1.4.3.5s.3.3.4.3A1.27,1.27,0,0,0,37.9,115.3Z"/><path d="M47.4,114.7l.7-4.1h1.6l-1.4,6H46.4l-.9-3.9-1,3.9H42.7l-1.4-6H43l.7,4.1,1.1-4.1h1.5Z"/><path d="M58,114.7l.7-4.1h1.6l-1.4,6H57l-.9-3.9-1,3.9H53.3l-1.4-6h1.8l.7,4.1,1.1-4.1H57Z"/><path d="M62.5,114.2c0,.2.1.3.2.5a1.38,1.38,0,0,0,.3.4,2.19,2.19,0,0,0,.5.3,1.27,1.27,0,0,0,.6.1,1.7,1.7,0,0,0,.7-.1,1.61,1.61,0,0,0,.7-.4l.8,1.1a8.79,8.79,0,0,1-1,.6,4,4,0,0,1-2.5,0,3.33,3.33,0,0,1-1-.6,3.59,3.59,0,0,1-.7-1,2.74,2.74,0,0,1-.2-1.3,4.3,4.3,0,0,1,.2-1.2,2.07,2.07,0,0,1,.6-1,5.5,5.5,0,0,1,.9-.7,2.34,2.34,0,0,1,1.2-.2,3.59,3.59,0,0,1,1.1.2,2.76,2.76,0,0,1,1.5,1.5,5,5,0,0,1,.2,1.2v.7H62.5Zm1.3-2.4a1.61,1.61,0,0,0-.9.3.91.91,0,0,0-.4.8h2.4a.91.91,0,0,0-.4-.8C64.2,111.9,64.1,111.8,63.8,111.8Z"/><path d="M71,113.7a1.27,1.27,0,0,0,.1.6c.1.2.1.4.2.5a.78.78,0,0,0,.4.4,1.27,1.27,0,0,0,.6.1c.2,0,.3,0,.4-.1s.2-.1.3-.2l.3-.3c.1-.1.1-.2.2-.3l1.4.7c-.1.2-.2.5-.4.6a2.65,2.65,0,0,1-.6.5,6.89,6.89,0,0,1-.8.3,2.77,2.77,0,0,1-.9.1,5,5,0,0,1-1.2-.2,2.18,2.18,0,0,1-.9-.7,3.33,3.33,0,0,1-.6-1,5,5,0,0,1-.2-1.2,4.3,4.3,0,0,1,.2-1.2,3.33,3.33,0,0,1,.6-1,3.11,3.11,0,0,1,.9-.7,2.34,2.34,0,0,1,1.2-.2,2.77,2.77,0,0,1,.9.1c.3.1.5.2.8.3a2.65,2.65,0,0,1,.6.5,2.09,2.09,0,0,1,.4.6l-1.4.7c-.1-.1-.1-.2-.2-.3L73,112c-.1-.1-.2-.1-.3-.2s-.3-.1-.4-.1-.4.1-.6.1a.78.78,0,0,0-.4.4c-.1.2-.2.3-.2.5s-.1.7-.1,1Z"/><path d="M79.3,116.1l-.2.2c-.1.1-.2.2-.3.2s-.3.1-.4.2-.4.1-.6.1a2,2,0,0,1-.8-.1,1.61,1.61,0,0,1-.7-.4c-.2-.2-.3-.4-.5-.6a1.85,1.85,0,0,1-.2-.7,1.66,1.66,0,0,1,.5-1.2,2.28,2.28,0,0,1,1.2-.6l1.7-.3v-.1a.85.85,0,0,0-.2-.6c-.2-.2-.4-.2-.8-.2a.9.9,0,0,0-.5.1c-.2,0-.3.1-.5.1a.76.76,0,0,0-.4.2c-.1.1-.2.1-.3.2l-.6-1.2a3.34,3.34,0,0,1,1.2-.5,5.85,5.85,0,0,1,1.3-.2,2,2,0,0,1,.8.1c.3.1.5.2.8.3l.6.6a1.5,1.5,0,0,1,.2,1v2.5c0,.2,0,.3.1.4a.52.52,0,0,0,.4.2l-.7,1.1a1.45,1.45,0,0,1-.7-.2A6.13,6.13,0,0,1,79.3,116.1Zm-1.5-1.9c-.2,0-.3.1-.5.2s-.2.2-.2.4a.76.76,0,0,0,.2.5,1.07,1.07,0,0,0,.6.2,1,1,0,0,0,1-1v-.6Z"/><path d="M81.8,108.5h1.6V115a.37.37,0,0,0,.1.3c.1.1.2.1.4.1h.4l.1,1.3H83.3a1.27,1.27,0,0,1-.6-.1,1.33,1.33,0,0,1-.5-.3,1.38,1.38,0,0,1-.3-.4,1.27,1.27,0,0,1-.1-.6v-6.8Z"/><path d="M86.6,113.7a1.27,1.27,0,0,0,.1.6c.1.2.1.4.2.5a.78.78,0,0,0,.4.4,1.27,1.27,0,0,0,.6.1c.2,0,.3,0,.4-.1s.2-.1.3-.2l.3-.3c.1-.1.1-.2.2-.3l1.4.7c-.1.2-.2.5-.4.6a2.65,2.65,0,0,1-.6.5,6.89,6.89,0,0,1-.8.3,2.77,2.77,0,0,1-.9.1,5,5,0,0,1-1.2-.2,2.18,2.18,0,0,1-.9-.7,3.33,3.33,0,0,1-.6-1,5,5,0,0,1-.2-1.2,4.3,4.3,0,0,1,.2-1.2,3.33,3.33,0,0,1,.6-1,3.11,3.11,0,0,1,.9-.7,2.34,2.34,0,0,1,1.2-.2,2.77,2.77,0,0,1,.9.1c.3.1.5.2.8.3a2.65,2.65,0,0,1,.6.5,2.09,2.09,0,0,1,.4.6l-1.4.7c-.1-.1-.1-.2-.2-.3l-.3-.3c-.1-.1-.2-.1-.3-.2s-.3-.1-.4-.1-.4.1-.6.1a.78.78,0,0,0-.4.4c-.1.2-.2.3-.2.5s-.1.7-.1,1Z"/><path d="M96.6,116.6H95v-.5c-.1.1-.2.2-.3.2s-.2.1-.3.2a.6.6,0,0,1-.4.1c-.2,0-.3.1-.5.1a2.92,2.92,0,0,1-.9-.2,4.35,4.35,0,0,1-.7-.4,1.61,1.61,0,0,1-.4-.7,2.2,2.2,0,0,1-.1-.8v-4.1H93V114a.75.75,0,0,0,.1.5.52.52,0,0,0,.2.4c.1.1.2.2.3.2s.2.1.4.1.3,0,.4-.1.3-.1.4-.3a.76.76,0,0,0,.2-.4,1.27,1.27,0,0,0,.1-.6v-3.3h1.6v6.1Z"/><path d="M97.9,108.5h1.6V115a.37.37,0,0,0,.1.3c.1.1.2.1.4.1h.4l.1,1.3H99.4a1.27,1.27,0,0,1-.6-.1,1.33,1.33,0,0,1-.5-.3,1.38,1.38,0,0,1-.3-.4,1.27,1.27,0,0,1-.1-.6v-6.8Z"/><path d="M104.7,116.1l-.2.2c-.1.1-.2.2-.3.2s-.3.1-.4.2-.4.1-.6.1a2,2,0,0,1-.8-.1,1.61,1.61,0,0,1-.7-.4c-.2-.2-.3-.4-.5-.6a1.85,1.85,0,0,1-.2-.7,1.66,1.66,0,0,1,.5-1.2,2.28,2.28,0,0,1,1.2-.6l1.7-.3v-.1a.85.85,0,0,0-.2-.6c-.2-.2-.4-.2-.8-.2a.9.9,0,0,0-.5.1c-.2,0-.3.1-.5.1a.76.76,0,0,0-.4.2c-.1.1-.2.1-.3.2l-.6-1.2a3.34,3.34,0,0,1,1.2-.5,5.85,5.85,0,0,1,1.3-.2,2,2,0,0,1,.8.1c.3.1.5.2.8.3l.6.6a1.5,1.5,0,0,1,.2,1v2.5c0,.2,0,.3.1.4a.52.52,0,0,0,.4.2l-.7,1.1a1.45,1.45,0,0,1-.7-.2C105,116.4,104.8,116.3,104.7,116.1Zm-1.4-1.9c-.2,0-.3.1-.5.2s-.2.2-.2.4a.76.76,0,0,0,.2.5,1.07,1.07,0,0,0,.6.2,1,1,0,0,0,1-1v-.6Z"/><path d="M109.3,114.8v.2c0,.1.1.1.1.2a.35.35,0,0,0,.2.1h1.1l.1,1.4a1.09,1.09,0,0,0-.5.1h-1a1.84,1.84,0,0,1-1.3-.4,1.36,1.36,0,0,1-.5-1.2v-3.3h-.8v-1.4h1.1v-1.6l1.6-.4v2.1H111V112h-1.6v2.8Z"/><path d="M113.2,114.2c0,.2.1.3.2.5a1.38,1.38,0,0,0,.3.4,2.19,2.19,0,0,0,.5.3,1.27,1.27,0,0,0,.6.1,1.7,1.7,0,0,0,.7-.1,1.61,1.61,0,0,0,.7-.4l.8,1.1a8.79,8.79,0,0,1-1,.6,4,4,0,0,1-2.5,0,3.33,3.33,0,0,1-1-.6,3.59,3.59,0,0,1-.7-1,2.74,2.74,0,0,1-.2-1.3,4.3,4.3,0,0,1,.2-1.2,2.07,2.07,0,0,1,.6-1,5.5,5.5,0,0,1,.9-.7,2.34,2.34,0,0,1,1.2-.2,3.59,3.59,0,0,1,1.1.2,2.76,2.76,0,0,1,1.5,1.5,5,5,0,0,1,.2,1.2v.7h-4.1Zm1.2-2.4a1.61,1.61,0,0,0-.9.3.91.91,0,0,0-.4.8h2.4a.91.91,0,0,0-.4-.8C114.8,111.9,114.8,111.8,114.4,111.8Z"/><path d="M120.9,117.4c.2,0,.3,0,.4-.1s.2-.2.2-.3l.1-.2-2.1-6.2h1.7l1.2,4.2,1-4.2h1.7l-2,6.8-.3.6c-.1.2-.3.3-.4.4a1.07,1.07,0,0,1-.6.2c-.2,0-.4.1-.6.1h-1.1a.37.37,0,0,1-.3-.1l.3-1.3a.37.37,0,0,1,.3.1h.5Z"/><path d="M128.5,110.5a4.3,4.3,0,0,1,1.2.2,2,2,0,0,1,.9.7,3.33,3.33,0,0,1,.6,1,5,5,0,0,1,.2,1.2,4.3,4.3,0,0,1-.2,1.2,2.66,2.66,0,0,1-.6,1,5.5,5.5,0,0,1-.9.7,2.54,2.54,0,0,1-1.2.2,4.3,4.3,0,0,1-1.2-.2,2.18,2.18,0,0,1-.9-.7,3.33,3.33,0,0,1-.6-1,5,5,0,0,1-.2-1.2,4.3,4.3,0,0,1,.2-1.2,2.07,2.07,0,0,1,.6-1,5.5,5.5,0,0,1,.9-.7A5,5,0,0,1,128.5,110.5Zm0,4.8a1.27,1.27,0,0,0,.6-.1,1.38,1.38,0,0,0,.4-.3,2.19,2.19,0,0,0,.3-.5,1.48,1.48,0,0,0,.1-.7h0a1.7,1.7,0,0,0-.1-.7c-.1-.2-.1-.4-.3-.5s-.3-.3-.4-.3-.4-.1-.6-.1a1.27,1.27,0,0,0-.6.1,1.38,1.38,0,0,0-.4.3,2.19,2.19,0,0,0-.3.5,1.48,1.48,0,0,0-.1.7h0a1.7,1.7,0,0,0,.1.7c.1.2.1.4.3.5s.3.3.4.3A1.27,1.27,0,0,0,128.5,115.3Z"/><path d="M137.7,116.6h-1.6v-.5c-.1.1-.2.2-.3.2s-.2.1-.3.2a.6.6,0,0,1-.4.1c-.2,0-.3.1-.5.1a2.92,2.92,0,0,1-.9-.2,4.35,4.35,0,0,1-.7-.4,1.61,1.61,0,0,1-.4-.7,2.2,2.2,0,0,1-.1-.8v-4.1h1.6V114a.75.75,0,0,0,.1.5.52.52,0,0,0,.2.4c.1.1.2.2.3.2s.2.1.4.1.3,0,.4-.1.3-.1.4-.3a.76.76,0,0,0,.2-.4,1.27,1.27,0,0,0,.1-.6v-3.3h1.6v6.1Z"/><path d="M142.4,112.1h-.2a1.27,1.27,0,0,0-.6.1.76.76,0,0,0-.5.2,2.18,2.18,0,0,0-.4.5,2,2,0,0,0-.1.8v2.9H139v-6h1.6v.7c.1-.1.1-.2.2-.3a1.38,1.38,0,0,1,.4-.3c.1-.1.3-.1.5-.2a4.33,4.33,0,0,0,.5-.1h.2v1.7Z"/><path d="M146.8,118.6h-1.6v-8h1.6v.5c.2-.2.4-.3.6-.5a2,2,0,0,1,.9-.2,3.59,3.59,0,0,1,1.1.2,1.78,1.78,0,0,1,.8.7,3.13,3.13,0,0,1,.5,1,5,5,0,0,1,.2,1.2,4.3,4.3,0,0,1-.2,1.2,2.07,2.07,0,0,1-.6,1,2.18,2.18,0,0,1-.9.7,2,2,0,0,1-1.1.2h-.5c-.1,0-.3-.1-.4-.1s-.2-.1-.3-.2l-.3-.3v2.6Zm-.1-4.4c0,.2,0,.3.1.4s.1.3.3.4a.52.52,0,0,0,.4.2.9.9,0,0,0,.5.1,1.27,1.27,0,0,0,.6-.1,1.38,1.38,0,0,0,.4-.3,2.19,2.19,0,0,0,.3-.5,1.48,1.48,0,0,0,.1-.7v-.1a1.7,1.7,0,0,0-.1-.7c-.1-.2-.1-.4-.3-.5s-.3-.3-.4-.3-.4-.1-.6-.1a.75.75,0,0,0-.5.1c-.2.1-.3.1-.4.2a1.38,1.38,0,0,0-.3.4.75.75,0,0,0-.1.5Z"/><path d="M155.4,116.1l-.2.2c-.1.1-.2.2-.3.2s-.3.1-.4.2-.4.1-.6.1a2,2,0,0,1-.8-.1,1.61,1.61,0,0,1-.7-.4c-.2-.2-.3-.4-.5-.6a1.85,1.85,0,0,1-.2-.7,1.66,1.66,0,0,1,.5-1.2,2.28,2.28,0,0,1,1.2-.6l1.7-.3v-.1a.85.85,0,0,0-.2-.6c-.2-.2-.4-.2-.8-.2a.9.9,0,0,0-.5.1c-.2,0-.3.1-.5.1a.76.76,0,0,0-.4.2c-.1.1-.2.1-.3.2l-.6-1.2a3.34,3.34,0,0,1,1.2-.5,5.85,5.85,0,0,1,1.3-.2,2,2,0,0,1,.8.1c.3.1.5.2.8.3l.6.6a1.5,1.5,0,0,1,.2,1v2.5c0,.2,0,.3.1.4a.52.52,0,0,0,.4.2l-.7,1.1a1.45,1.45,0,0,1-.7-.2A6.13,6.13,0,0,1,155.4,116.1Zm-1.4-1.9c-.2,0-.3.1-.5.2s-.2.2-.2.4a.76.76,0,0,0,.2.5,1.07,1.07,0,0,0,.6.2,1,1,0,0,0,1-1v-.6Z"/><path d="M158.8,117.4c.2,0,.3,0,.4-.1s.2-.2.2-.3l.1-.2-2.1-6.2h1.7l1.2,4.2,1-4.2H163l-2,6.8-.3.6c-.1.2-.3.3-.4.4a1.07,1.07,0,0,1-.6.2c-.2,0-.4.1-.6.1H158a.37.37,0,0,1-.3-.1l.3-1.3a.37.37,0,0,1,.3.1h.5Z"/><path d="M168.8,116.6h-1.6v-3.5a.75.75,0,0,0-.1-.5.76.76,0,0,0-.2-.4c-.1-.1-.2-.2-.3-.2s-.2-.1-.4-.1-.3,0-.4.1-.2.1-.3.2a.76.76,0,0,0-.2.4,1.27,1.27,0,0,0-.1.6v3.3h-1.6v-6h1.6v.5a1.79,1.79,0,0,1,.7-.5,2.39,2.39,0,0,1,.9-.2,2.92,2.92,0,0,1,.9.2,1.34,1.34,0,0,1,.7.6.78.78,0,0,1,.4-.4c.1-.1.3-.2.4-.3a.9.9,0,0,1,.5-.1h.5a2.92,2.92,0,0,1,.9.2,4.35,4.35,0,0,1,.7.4,2.09,2.09,0,0,1,.4.6,2,2,0,0,1,.1.8v4.1h-1.6v-3.5a.75.75,0,0,0-.1-.5.76.76,0,0,0-.2-.4c-.1-.1-.2-.2-.3-.2s-.2-.1-.4-.1-.3,0-.4.1-.2.1-.3.2a.76.76,0,0,0-.2.4,1.27,1.27,0,0,0-.1.6v3.6Z"/><path d="M175,114.2c0,.2.1.3.2.5a1.38,1.38,0,0,0,.3.4,2.19,2.19,0,0,0,.5.3,1.27,1.27,0,0,0,.6.1,1.7,1.7,0,0,0,.7-.1,1.61,1.61,0,0,0,.7-.4l.8,1.1a8.79,8.79,0,0,1-1,.6,4,4,0,0,1-2.5,0,3.33,3.33,0,0,1-1-.6,3.59,3.59,0,0,1-.7-1,2.74,2.74,0,0,1-.2-1.3,4.3,4.3,0,0,1,.2-1.2,2.07,2.07,0,0,1,.6-1,5.5,5.5,0,0,1,.9-.7,2.34,2.34,0,0,1,1.2-.2,3.59,3.59,0,0,1,1.1.2,2.76,2.76,0,0,1,1.5,1.5,5,5,0,0,1,.2,1.2v.7H175Zm1.3-2.4a1.61,1.61,0,0,0-.9.3.91.91,0,0,0-.4.8h2.4a.91.91,0,0,0-.4-.8C176.7,111.9,176.6,111.8,176.3,111.8Z"/><path d="M180.1,110.6h1.6v.5c.1-.1.2-.2.3-.2s.2-.1.3-.2a.6.6,0,0,1,.4-.1,4.33,4.33,0,0,1,.5-.1,2.92,2.92,0,0,1,.9.2,4.35,4.35,0,0,1,.7.4,1.61,1.61,0,0,1,.4.7,2.2,2.2,0,0,1,.1.8v4.1h-1.6v-3.5a.75.75,0,0,0-.1-.5.76.76,0,0,0-.2-.4c-.1-.1-.2-.2-.3-.2s-.2-.1-.4-.1-.3,0-.4.1-.3.1-.4.3a.76.76,0,0,0-.2.4,1.27,1.27,0,0,0-.1.6v3.3H180v-6.1Z"/><path d="M188.8,114.8v.2c0,.1.1.1.1.2a.35.35,0,0,0,.2.1h1.1l.1,1.4a1.09,1.09,0,0,0-.5.1h-1a1.84,1.84,0,0,1-1.3-.4,1.36,1.36,0,0,1-.5-1.2v-3.3h-1.1v-1.4H187v-1.6l1.6-.4v2.1h1.6V112h-1.6v2.8Z"/></g><rect x="115.1" y="67.7" width="68.2" height="32.7" style="fill:none"/><g style="isolation:isolate"><path d="M126,73.9a2.84,2.84,0,0,0-.9-1,2.41,2.41,0,0,0-1.5-.4,3,3,0,0,0-1,.2,1.79,1.79,0,0,0-.7.5,2.18,2.18,0,0,0-.5.8,3.59,3.59,0,0,0-.2,1.1v1.7h3.5v2.9h-3.5v3.5h7.3v3H116.2v-3h1.5V79.7h-1.5V76.8h1.5V74.9a5.56,5.56,0,0,1,.4-2.3,5.23,5.23,0,0,1,1.2-1.7,5.44,5.44,0,0,1,1.8-1.1,8.52,8.52,0,0,1,2.3-.4,9.85,9.85,0,0,1,1.7.2,8.8,8.8,0,0,1,1.5.5,3.6,3.6,0,0,1,1.2.8,4.3,4.3,0,0,1,.9,1Z" style="fill:#fff"/><path d="M131.1,78.7l1-9h11.2v3h-8.2l-.4,3.1a1.61,1.61,0,0,1,.7-.4c.3-.1.5-.2.8-.3s.6-.1.9-.2a2.77,2.77,0,0,1,.9-.1,6.05,6.05,0,0,1,2.4.4,5.49,5.49,0,0,1,3.7,5.2,7,7,0,0,1-.5,2.5,5.5,5.5,0,0,1-1.5,1.9,9.41,9.41,0,0,1-2.2,1.2,7.66,7.66,0,0,1-2.7.4,9.08,9.08,0,0,1-2.3-.3,11.92,11.92,0,0,1-2-.8,6.39,6.39,0,0,1-1.5-1.3,5.24,5.24,0,0,1-1-1.8l3.4-1a3.53,3.53,0,0,0,1.2,1.7,3.28,3.28,0,0,0,2.1.6,3.19,3.19,0,0,0,1.4-.3,3.59,3.59,0,0,0,1-.7,2.36,2.36,0,0,0,.6-.9,3.59,3.59,0,0,0,.2-1.1,4.25,4.25,0,0,0-.2-1.1,4.7,4.7,0,0,0-.6-.9,2.07,2.07,0,0,0-1-.6,3.18,3.18,0,0,0-1.4-.2,2.77,2.77,0,0,0-.9.1c-.3.1-.5.2-.8.3s-.4.3-.6.4a1.76,1.76,0,0,0-.4.5Z" style="fill:#fff"/><path d="M160,77.9a12.31,12.31,0,0,1-.2,2,14.62,14.62,0,0,1-.5,2,6.08,6.08,0,0,1-.9,1.8,5.84,5.84,0,0,1-1.3,1.4,5.08,5.08,0,0,1-1.8.9,9.75,9.75,0,0,1-4.8,0,5.08,5.08,0,0,1-1.8-.9,5.71,5.71,0,0,1-1.3-1.4,15,15,0,0,1-.9-1.8,11.7,11.7,0,0,1-.5-2,15,15,0,0,1-.2-2,12.31,12.31,0,0,1,.2-2,14.62,14.62,0,0,1,.5-2,7.57,7.57,0,0,1,.9-1.8,5.84,5.84,0,0,1,1.3-1.4,7.68,7.68,0,0,1,1.8-1,8.6,8.6,0,0,1,2.4-.4,6.05,6.05,0,0,1,2.4.4,5.24,5.24,0,0,1,1.8,1,5.71,5.71,0,0,1,1.3,1.4,15,15,0,0,1,.9,1.8,11.7,11.7,0,0,1,.5,2A7.14,7.14,0,0,1,160,77.9Zm-10.3.3a12.31,12.31,0,0,0,.2,2,4.92,4.92,0,0,0,.6,1.7,2.71,2.71,0,0,0,1,1.1,2.54,2.54,0,0,0,1.6.4,2.73,2.73,0,0,0,1.6-.4,3.46,3.46,0,0,0,1-1.1,4.25,4.25,0,0,0,.5-1.7,12.31,12.31,0,0,0,.2-2v-.4a12.31,12.31,0,0,0-.2-2,8.45,8.45,0,0,0-.5-1.7,2.71,2.71,0,0,0-1-1.1,2.54,2.54,0,0,0-1.6-.4,2.73,2.73,0,0,0-1.6.4,3.46,3.46,0,0,0-1,1.1,6.74,6.74,0,0,0-.6,1.7,12.31,12.31,0,0,0-.2,2Z" style="fill:#fff"/><path d="M176.1,77.9a12.31,12.31,0,0,1-.2,2,14.62,14.62,0,0,1-.5,2,6.08,6.08,0,0,1-.9,1.8,5.84,5.84,0,0,1-1.3,1.4,5.08,5.08,0,0,1-1.8.9,9.75,9.75,0,0,1-4.8,0,5.08,5.08,0,0,1-1.8-.9,5.71,5.71,0,0,1-1.3-1.4,15,15,0,0,1-.9-1.8,11.7,11.7,0,0,1-.5-2,15,15,0,0,1-.2-2,12.31,12.31,0,0,1,.2-2,14.62,14.62,0,0,1,.5-2,7.57,7.57,0,0,1,.9-1.8,5.84,5.84,0,0,1,1.3-1.4,7.68,7.68,0,0,1,1.8-1,8.6,8.6,0,0,1,2.4-.4,6.05,6.05,0,0,1,2.4.4,5.24,5.24,0,0,1,1.8,1,5.71,5.71,0,0,1,1.3,1.4,15,15,0,0,1,.9,1.8,11.7,11.7,0,0,1,.5,2A7.14,7.14,0,0,1,176.1,77.9Zm-10.3.3a12.31,12.31,0,0,0,.2,2,4.92,4.92,0,0,0,.6,1.7,2.71,2.71,0,0,0,1,1.1,2.54,2.54,0,0,0,1.6.4,2.73,2.73,0,0,0,1.6-.4,3.46,3.46,0,0,0,1-1.1,4.25,4.25,0,0,0,.5-1.7,12.31,12.31,0,0,0,.2-2v-.4a12.31,12.31,0,0,0-.2-2,8.45,8.45,0,0,0-.5-1.7,2.71,2.71,0,0,0-1-1.1,2.54,2.54,0,0,0-1.6-.4,2.73,2.73,0,0,0-1.6.4,3.46,3.46,0,0,0-1,1.1,6.74,6.74,0,0,0-.6,1.7,12.31,12.31,0,0,0-.2,2Z" style="fill:#fff"/></g><rect x="16.3" y="36.8" width="98.8" height="47.1" style="fill:none"/><g style="isolation:isolate"><path d="M18.2,44.7c.1.2.3.3.5.5a1.61,1.61,0,0,0,.7.4,6.89,6.89,0,0,0,.8.3,2.77,2.77,0,0,0,.9.1,2,2,0,0,0,1.4-.4,1.39,1.39,0,0,0,.5-1,1,1,0,0,0-.4-.9,3.75,3.75,0,0,0-1.4-.5l-.3-.1-1.4-.3a2.28,2.28,0,0,1-1.2-.6,2.19,2.19,0,0,1-.9-1,3.34,3.34,0,0,1-.3-1.5,5.16,5.16,0,0,1,.2-1.1,3.59,3.59,0,0,1,.7-1,4.11,4.11,0,0,1,1.3-.8,5.41,5.41,0,0,1,1.9-.3,6.05,6.05,0,0,1,2.4.4,4.34,4.34,0,0,1,1.7,1.2l-1.5,1.4a3.6,3.6,0,0,0-1.2-.8,3.93,3.93,0,0,0-1.4-.3,2.27,2.27,0,0,0-1.3.3,1.05,1.05,0,0,0-.5.9,1.42,1.42,0,0,0,.2.6.78.78,0,0,0,.4.4,1.45,1.45,0,0,0,.7.2,2.92,2.92,0,0,1,.9.2h.2l1.3.3a6.12,6.12,0,0,1,1.2.5c.4.2.6.6.9.9a3.34,3.34,0,0,1,.3,1.5,4,4,0,0,1-.3,1.5,3.13,3.13,0,0,1-.9,1.1,5.39,5.39,0,0,1-1.3.7,3.89,3.89,0,0,1-1.5.2,7.57,7.57,0,0,1-1.5-.1,3.37,3.37,0,0,1-1.2-.4,8.79,8.79,0,0,1-1-.6,5,5,0,0,1-.8-.7Z"/><path d="M30,45.3v.3a.35.35,0,0,0,.1.2.37.37,0,0,0,.3.1c.1,0,.3.1.4.1h1.1l.2,1.9a1.27,1.27,0,0,0-.6.1H30.2a2.86,2.86,0,0,1-1.7-.5,2,2,0,0,1-.6-1.6V41.5H26.4V39.7h1.5V37.4l2.1-.6v2.9h2.1v1.8H30Z"/><path d="M38,47l-.3.3c-.1.1-.3.2-.4.3a1.07,1.07,0,0,1-.6.2,2.2,2.2,0,0,1-.8.1,3.59,3.59,0,0,1-1.1-.2,4.05,4.05,0,0,1-.9-.5,1.56,1.56,0,0,1-.6-.8,3,3,0,0,1-.2-1,2.11,2.11,0,0,1,.6-1.6,3,3,0,0,1,1.7-.8l2.3-.3v-.2a1.22,1.22,0,0,0-.3-.9,1.61,1.61,0,0,0-1.1-.3,1.27,1.27,0,0,0-.6.1,1.42,1.42,0,0,0-.6.2c-.2.1-.4.1-.5.2s-.3.1-.4.2l-.8-1.6a4.42,4.42,0,0,1,1.6-.6,5.66,5.66,0,0,1,1.8-.3,3.75,3.75,0,0,1,1.1.1,3,3,0,0,1,1,.4,3,3,0,0,1,.8.8,2.65,2.65,0,0,1,.3,1.4v3.3a.76.76,0,0,0,.2.5,2.19,2.19,0,0,0,.5.3l-1,1.5a1.22,1.22,0,0,1-.9-.3A1.23,1.23,0,0,1,38,47Zm-1.9-2.6a.6.6,0,0,0-.6.3c-.2.1-.2.3-.2.6a.91.91,0,0,0,.3.7,1.2,1.2,0,0,0,2.1-.9v-.8Z"/><path d="M44.2,45.3v.3a.35.35,0,0,0,.1.2.37.37,0,0,0,.3.1c.1,0,.3.1.4.1h1.1l.2,1.9a1.27,1.27,0,0,0-.6.1H44.4a2.86,2.86,0,0,1-1.7-.5,2,2,0,0,1-.6-1.6V41.5H40.6V39.7h1.5V37.4l2.1-.6v2.9h2.1v1.8H44.2Z"/><path d="M49.4,44.4a1.85,1.85,0,0,0,.2.7,1.21,1.21,0,0,0,.5.5c.2.1.4.3.6.3s.5.1.8.1a4.4,4.4,0,0,0,1-.2,3.13,3.13,0,0,0,1-.5l1,1.5a4.68,4.68,0,0,1-1.4.8,5.23,5.23,0,0,1-1.8.3,4.15,4.15,0,0,1-1.6-.3,5.67,5.67,0,0,1-1.3-.8,3,3,0,0,1-.9-1.3,4.84,4.84,0,0,1-.3-1.8,4.67,4.67,0,0,1,.3-1.7,4.11,4.11,0,0,1,.8-1.3,3.45,3.45,0,0,1,1.2-.9,4.15,4.15,0,0,1,1.6-.3,4,4,0,0,1,1.5.3,3.6,3.6,0,0,1,1.2.8,4.33,4.33,0,0,1,1.1,2.9v1H49.4Zm1.7-3.2a1.43,1.43,0,0,0-1.1.5,1.61,1.61,0,0,0-.5,1.1h3.2a1.61,1.61,0,0,0-.5-1.1A1.43,1.43,0,0,0,51.1,41.2Z"/><path d="M63.1,47.7H61V43a1.48,1.48,0,0,0-.1-.7,2.19,2.19,0,0,0-.3-.5,1.38,1.38,0,0,0-.4-.3.9.9,0,0,0-.5-.1,1.27,1.27,0,0,0-.6.1c-.2.1-.3.2-.5.3a3.33,3.33,0,0,0-.3.6,2,2,0,0,0-.1.8v4.4H56.1V39.5h2.1v.7a5.5,5.5,0,0,1,.9-.7,2.17,2.17,0,0,1,1.2-.2,2.66,2.66,0,0,1,1.2.3,2,2,0,0,1,.9.9,1.21,1.21,0,0,1,.5-.5c.2-.1.4-.3.6-.3a6.37,6.37,0,0,1,.7-.2,2,2,0,0,1,.7-.1,3.73,3.73,0,0,1,1.2.2,2,2,0,0,1,.9.6,7,7,0,0,1,.6.9,2,2,0,0,1,.2,1v5.6H65.7V43a1.48,1.48,0,0,0-.1-.7,2.19,2.19,0,0,0-.3-.5,1.38,1.38,0,0,0-.4-.3.75.75,0,0,0-.5-.1,1.27,1.27,0,0,0-.6.1c-.2.1-.3.2-.5.3a3.33,3.33,0,0,0-.3.6,2.2,2.2,0,0,0-.1.8v4.5Z"/><path d="M71.4,44.4a1.85,1.85,0,0,0,.2.7,1.21,1.21,0,0,0,.5.5c.2.1.4.3.6.3s.5.1.8.1a4.4,4.4,0,0,0,1-.2,3.13,3.13,0,0,0,1-.5l1,1.5a4.68,4.68,0,0,1-1.4.8,5.23,5.23,0,0,1-1.8.3,4.15,4.15,0,0,1-1.6-.3,5.67,5.67,0,0,1-1.3-.8,3,3,0,0,1-.9-1.3,4.84,4.84,0,0,1-.3-1.8,4.67,4.67,0,0,1,.3-1.7,4.11,4.11,0,0,1,.8-1.3,3.45,3.45,0,0,1,1.2-.9,4.15,4.15,0,0,1,1.6-.3,4,4,0,0,1,1.5.3,3.6,3.6,0,0,1,1.2.8,4.33,4.33,0,0,1,1.1,2.9v1H71.4Zm1.7-3.2a1.43,1.43,0,0,0-1.1.5,1.61,1.61,0,0,0-.5,1.1h3.2a1.61,1.61,0,0,0-.5-1.1A1.43,1.43,0,0,0,73.1,41.2Z"/><path d="M78.3,39.6h2.1v.7a1.38,1.38,0,0,1,.4-.3,2.19,2.19,0,0,1,.5-.3c.2-.1.4-.1.6-.2s.4-.1.7-.1a5,5,0,0,1,1.2.2,1.8,1.8,0,0,1,.9.6l.6.9a3.59,3.59,0,0,1,.2,1.1v5.5H83.4V43a1.48,1.48,0,0,0-.1-.7,2.19,2.19,0,0,0-.3-.5,1.38,1.38,0,0,0-.4-.3.9.9,0,0,0-.5-.1,1.27,1.27,0,0,0-.6.1c-.2.1-.3.2-.5.3a3.33,3.33,0,0,0-.3.6,2.2,2.2,0,0,0-.1.8v4.5H78.5V39.6Z"/><path d="M90,45.3v.3a.35.35,0,0,0,.1.2.37.37,0,0,0,.3.1c.1,0,.3.1.4.1h1.1l.2,1.9a1.27,1.27,0,0,0-.6.1H90.2a2.86,2.86,0,0,1-1.7-.5,2,2,0,0,1-.6-1.6V41.5H86.4V39.7h1.5V37.4l2.1-.6v2.9h2.1v1.8H90v3.8Z"/></g><rect x="26" y="124.5" width="191.3" height="2.5"/><rect x="26" y="133.7" width="191.3" height="2.5"/><rect x="14.9" y="262.8" width="268.6" height="20" style="fill:#dee0e2"/><rect x="25.9" y="189" width="191.3" height="2.5"/><rect x="25.9" y="235.2" width="191.3" height="2.5"/><rect x="26" y="271.5" width="191.3" height="2.5"/><g style="isolation:isolate"><path d="M236.7,183.4a.9.9,0,0,0-.6-.6,2.93,2.93,0,0,0-1-.3,1.27,1.27,0,0,0-.6.1c-.2.1-.3.2-.5.3a2.19,2.19,0,0,0-.3.5,1.48,1.48,0,0,0-.1.7v1.1h2.2v1.9h-2.2v2.3h4.6v2h-7.5v-2h.9v-2.3h-.9v-1.9h.9V184a3.34,3.34,0,0,1,.3-1.5,2.84,2.84,0,0,1,.8-1.1,4.13,4.13,0,0,1,1.1-.7,3.42,3.42,0,0,1,1.5-.2,4.1,4.1,0,0,1,1.1.1l.9.3a3.51,3.51,0,0,1,.8.5,2,2,0,0,1,.6.7Z"/><path d="M241.9,187.2l-2.5-3.9h2.4l1.2,2.2,1.3-2.2h2.4l-2.5,3.9,2.8,4.3h-2.5l-1.6-2.5-1.5,2.5H239Z"/><path d="M247.9,190.3a.75.75,0,0,1,.1-.5,1.38,1.38,0,0,1,.3-.4c.1-.1.3-.2.4-.3a.9.9,0,0,1,.5-.1.75.75,0,0,1,.5.1,1.38,1.38,0,0,1,.4.3c.1.1.2.3.3.4a.9.9,0,0,1,.1.5.75.75,0,0,1-.1.5,1.38,1.38,0,0,1-.3.4c-.1.1-.3.2-.4.3a.9.9,0,0,1-.5.1.75.75,0,0,1-.5-.1,1.38,1.38,0,0,1-.4-.3c-.1-.1-.2-.3-.3-.4A.9.9,0,0,1,247.9,190.3Z"/><path d="M254.2,187.2l-2.5-3.9h2.4l1.2,2.2,1.3-2.2H259l-2.5,3.9,2.8,4.3h-2.5l-1.6-2.5-1.5,2.5h-2.4Z"/><path d="M262.2,187.2l-2.5-3.9h2.4l1.2,2.2,1.3-2.2H267l-2.5,3.9,2.8,4.3h-2.5l-1.6-2.5-1.5,2.5h-2.4Z"/></g><g style="isolation:isolate"><path d="M236.7,229.6a.9.9,0,0,0-.6-.6,2.93,2.93,0,0,0-1-.3,1.27,1.27,0,0,0-.6.1c-.2.1-.3.2-.5.3a2.19,2.19,0,0,0-.3.5,1.48,1.48,0,0,0-.1.7v1.1h2.2v1.9h-2.2v2.3h4.6v2h-7.5v-2h.9v-2.3h-.9v-1.9h.9v-1.2a3.34,3.34,0,0,1,.3-1.5,2.84,2.84,0,0,1,.8-1.1,4.13,4.13,0,0,1,1.1-.7,3.42,3.42,0,0,1,1.5-.2,4.1,4.1,0,0,1,1.1.1l.9.3a3.51,3.51,0,0,1,.8.5,2,2,0,0,1,.6.7Z"/><path d="M241.9,233.5l-2.5-3.9h2.4l1.2,2.2,1.3-2.2h2.4l-2.5,3.9,2.8,4.3h-2.5l-1.6-2.5-1.5,2.5H239Z"/><path d="M247.9,236.5a.75.75,0,0,1,.1-.5,1.38,1.38,0,0,1,.3-.4c.1-.1.3-.2.4-.3a.9.9,0,0,1,.5-.1.75.75,0,0,1,.5.1,1.38,1.38,0,0,1,.4.3c.1.1.2.3.3.4a.9.9,0,0,1,.1.5.75.75,0,0,1-.1.5,1.38,1.38,0,0,1-.3.4c-.1.1-.3.2-.4.3a.9.9,0,0,1-.5.1.75.75,0,0,1-.5-.1,1.38,1.38,0,0,1-.4-.3c-.1-.1-.2-.3-.3-.4A.75.75,0,0,1,247.9,236.5Z"/><path d="M254.2,233.5l-2.5-3.9h2.4l1.2,2.2,1.3-2.2H259l-2.5,3.9,2.8,4.3h-2.5l-1.6-2.5-1.5,2.5h-2.4Z"/><path d="M262.2,233.5l-2.5-3.9h2.4l1.2,2.2,1.3-2.2H267l-2.5,3.9,2.8,4.3h-2.5l-1.6-2.5-1.5,2.5h-2.4Z"/></g><g style="isolation:isolate"><path d="M236.7,269.2a.9.9,0,0,0-.6-.6,2.93,2.93,0,0,0-1-.3,1.27,1.27,0,0,0-.6.1c-.2.1-.3.2-.5.3a2.19,2.19,0,0,0-.3.5,1.48,1.48,0,0,0-.1.7V271h2.2v1.9h-2.2v2.3h4.6v2h-7.5v-2h.9v-2.3h-.9V271h.9v-1.1a3.34,3.34,0,0,1,.3-1.5,2.84,2.84,0,0,1,.8-1.1,4.13,4.13,0,0,1,1.1-.7,3.42,3.42,0,0,1,1.5-.2,4.1,4.1,0,0,1,1.1.1l.9.3a3.51,3.51,0,0,1,.8.5,2,2,0,0,1,.6.7Z"/><path d="M241.9,273.1l-2.5-3.9h2.4l1.2,2.2,1.3-2.2h2.4l-2.5,3.9,2.8,4.3h-2.5l-1.6-2.5-1.5,2.5H239Z"/><path d="M247.9,276.1a.75.75,0,0,1,.1-.5,1.38,1.38,0,0,1,.3-.4c.1-.1.3-.2.4-.3a.9.9,0,0,1,.5-.1.75.75,0,0,1,.5.1,1.38,1.38,0,0,1,.4.3c.1.1.2.3.3.4a.9.9,0,0,1,.1.5.75.75,0,0,1-.1.5,1.38,1.38,0,0,1-.3.4c-.1.1-.3.2-.4.3a.9.9,0,0,1-.5.1.75.75,0,0,1-.5-.1,1.38,1.38,0,0,1-.4-.3c-.1-.1-.2-.3-.3-.4A.75.75,0,0,1,247.9,276.1Z"/><path d="M254.2,273.1l-2.5-3.9h2.4l1.2,2.2,1.3-2.2H259l-2.5,3.9,2.8,4.3h-2.5l-1.6-2.5-1.5,2.5h-2.4Z"/><path d="M262.2,273.1l-2.5-3.9h2.4l1.2,2.2,1.3-2.2H267l-2.5,3.9,2.8,4.3h-2.5l-1.6-2.5-1.5,2.5h-2.4Z"/></g><rect width="295.9" height="22.3"/><path d="M22.6,17a36.49,36.49,0,0,1,5.9.4,12.31,12.31,0,0,1,1.7-4.2L29,12.8a2.82,2.82,0,0,1,0,1.3,1.87,1.87,0,0,1-.5-1.1l-.6,1.9a1.8,1.8,0,0,1,.9-.4c-.5,1.2-1.2,1.5-1.7,1.4a.87.87,0,0,1-.7-1c.1-.6.7-.7,1,0,.5-1.1-.4-1.4-.9-1.1a1.84,1.84,0,0,0,.3-2.7c-1,.8-1,1.5-.5,2.6-.6-.7-1.5-.3-1.2.8.4-.6,1-.2.9.4a1.5,1.5,0,0,1-1.7.9c-1.3-.1-1.3-1-1.4-1.7a1.91,1.91,0,0,1,1.4.9l.2-2a2.57,2.57,0,0,1-1.5.7,7.34,7.34,0,0,1,1-1.4H21.3a7.34,7.34,0,0,1,1,1.4,1.76,1.76,0,0,1-1.5-.7l.2,2c.5-.7,1-1,1.4-.9,0,.7-.1,1.6-1.4,1.7-.9,0-1.7-.4-1.7-.9s.5-1,.9-.4c.3-1.1-.6-1.4-1.2-.8a2,2,0,0,0-.5-2.6c-.8.8-.7,1.7.2,2.6-.6-.3-1.5,0-.9,1.1.3-.7.9-.5,1,0a.8.8,0,0,1-.7,1c-.4.1-1.1-.2-1.7-1.4a1.22,1.22,0,0,1,.9.4l-.6-1.9a2.26,2.26,0,0,1-.5,1.1,2.82,2.82,0,0,1,0-1.3l-1.2.4a11.47,11.47,0,0,1,1.7,4.2,54.08,54.08,0,0,1,5.9-.3" style="fill:#fff"/><path d="M27.7,9.1a.81.81,0,0,1-1.1-.5.81.81,0,0,1,.5-1.1.78.78,0,0,1,1.1.5.81.81,0,0,1-.5,1.1" style="fill:#fff"/><path d="M25.5,9.8a.85.85,0,1,1-.6-1.6.85.85,0,0,1,.6,1.6" style="fill:#fff"/><path d="M29.7,10.3a.85.85,0,0,1-.6-1.6.85.85,0,0,1,.6,1.6" style="fill:#fff"/><path d="M30.3,12.5a.85.85,0,0,1-.6-1.6.81.81,0,0,1,1.1.5.89.89,0,0,1-.5,1.1" style="fill:#fff"/><path d="M19.7,9.8a.81.81,0,0,0,1.1-.5.78.78,0,0,0-.5-1.1.81.81,0,0,0-1.1.5,1,1,0,0,0,.5,1.1" style="fill:#fff"/><path d="M17.5,9.1a.81.81,0,0,0,1.1-.5.85.85,0,1,0-1.1.5" style="fill:#fff"/><path d="M15.5,10.3a.85.85,0,1,0,.6-1.6.81.81,0,0,0-1.1.5,1,1,0,0,0,.5,1.1" style="fill:#fff"/><path d="M14.9,12.5a.85.85,0,1,0,.6-1.6.81.81,0,0,0-1.1.5,1,1,0,0,0,.5,1.1" style="fill:#fff"/><path d="M23.1,7.5h0l1.1.6V6.5l-1.1.3h0a.1.1,0,0,0-.1-.1h0l.4-1.4H21.8l.4,1.4h0a.1.1,0,0,0-.1.1h0L21,6.5V8.1l1.1-.6h0a.1.1,0,0,0,.1.1l-.6,1.9h0v.3a1.06,1.06,0,0,0,.9,1h.2a1,1,0,0,0,.9-1V9.5h0l-.5-2h0" style="fill:#fff"/><rect x="33.8" y="9.5" width="101" height="7.6" style="fill:none"/><g style="isolation:isolate"><path d="M39.4,14.5a1.27,1.27,0,0,0,.6-.1c.2-.1.3-.2.5-.3a2.19,2.19,0,0,0,.3-.5,1.48,1.48,0,0,0,.1-.7V8.4h1.5v4.7a3.59,3.59,0,0,1-.2,1.1,2.41,2.41,0,0,1-.6.8,4.05,4.05,0,0,1-.9.5,4,4,0,0,1-1.3.4,5,5,0,0,1-1.2-.2,1.93,1.93,0,0,1-.9-.5,2.41,2.41,0,0,1-.6-.8,3.59,3.59,0,0,1-.2-1.1V8.6H38v4.5a1.48,1.48,0,0,0,.1.7,2.19,2.19,0,0,0,.3.5,2.19,2.19,0,0,0,.5.3A.75.75,0,0,1,39.4,14.5Z" style="fill:#fff"/><path d="M43.7,10.3h1.4v.5c.1-.1.2-.1.3-.2s.2-.1.3-.2.2-.1.4-.1h.5a2,2,0,0,1,.8.1,1.84,1.84,0,0,1,1,1,1.7,1.7,0,0,1,.1.7v3.7H47.1V12.6a.75.75,0,0,0-.1-.5c0-.1-.1-.2-.2-.3s-.2-.1-.3-.2-.2-.1-.3-.1a.6.6,0,0,0-.4.1c-.1.1-.2.1-.3.2a.52.52,0,0,0-.2.4c0,.2-.1.3-.1.5v3H43.7Z" style="fill:#fff"/><path d="M49.4,8.9a.37.37,0,0,1,.1-.3c.1-.1.1-.2.2-.3s.2-.1.3-.2a.5.5,0,0,1,.6,0c.1,0,.2.1.3.2s.1.2.2.3.1.2.1.3a.37.37,0,0,1-.1.3c0,.1-.1.2-.2.3s-.2.1-.3.2-.2.1-.3.1a.37.37,0,0,1-.3-.1c-.1,0-.2-.1-.3-.2s-.1-.2-.2-.3A.37.37,0,0,1,49.4,8.9Zm1.5,6.8H49.5V10.2h1.4Z" style="fill:#fff"/><path d="M53.3,15.7l-1.7-5.5h1.6l1,3.8,1-3.8h1.5L55,15.7Z" style="fill:#fff"/><path d="M58.6,13.5c0,.2.1.3.2.5s.2.3.3.4a.76.76,0,0,0,.4.2.9.9,0,0,0,.5.1,2,2,0,0,0,.7-.1c.2-.1.5-.2.7-.3l.7,1a4.05,4.05,0,0,1-.9.5c-.5,0-.9.1-1.3.1a4.25,4.25,0,0,1-1.1-.2,1.8,1.8,0,0,1-.9-.6,3.49,3.49,0,0,1-.6-.9,2.34,2.34,0,0,1-.2-1.2,3.59,3.59,0,0,1,.2-1.1,4.05,4.05,0,0,1,.5-.9,1.56,1.56,0,0,1,.8-.6,3.59,3.59,0,0,1,1.1-.2,3,3,0,0,1,1,.2A2.1,2.1,0,0,1,62,11.7a3.59,3.59,0,0,1,.2,1.1v.6H58.6Zm1.2-2.1a1.14,1.14,0,0,0-.8.3,1.61,1.61,0,0,0-.4.7h2.2a1,1,0,0,0-1-1Z" style="fill:#fff"/><path d="M66.3,11.7h-.1a1.27,1.27,0,0,0-.6.1c-.2,0-.3.1-.5.2a.54.54,0,0,0-.3.4,1.48,1.48,0,0,0-.1.7v2.6H63.3V10.2h1.4v.7c.1-.1.1-.2.2-.3s.2-.2.3-.2.3-.1.4-.2.3-.1.5-.1h.2Z" style="fill:#fff"/><path d="M67.5,14a4.23,4.23,0,0,0,.7.5,3.09,3.09,0,0,0,.8.2.75.75,0,0,0,.5-.1c.1-.1.2-.2.2-.3s-.2-.4-.7-.5l-.3-.2a1.42,1.42,0,0,1-.6-.2l-.6-.3a1,1,0,0,1-.4-.5,1.45,1.45,0,0,1-.2-.7,1.42,1.42,0,0,1,.2-.6,1,1,0,0,1,.4-.5,4.35,4.35,0,0,1,.7-.4,2.77,2.77,0,0,1,.9-.1,3.73,3.73,0,0,1,1.2.2,1.93,1.93,0,0,1,.9.5l-.7.9-.6-.3a1.7,1.7,0,0,0-.7-.1.75.75,0,0,0-.5.1c-.1.1-.2.2-.2.3s.1.2.2.3.3.1.5.2l.6.2a3.26,3.26,0,0,1,1.2.6,1.78,1.78,0,0,1,.4,1,1.7,1.7,0,0,1-.1.7,2.09,2.09,0,0,1-.4.6,1.61,1.61,0,0,1-.7.4,4,4,0,0,0-1.1,0,1.48,1.48,0,0,1-.7-.1,1.42,1.42,0,0,1-.6-.2,2.19,2.19,0,0,1-.5-.3,1.38,1.38,0,0,1-.4-.3Z" style="fill:#fff"/><path d="M75.2,15.2l-.2.2c-.1.1-.2.1-.3.2s-.2.1-.4.1-.3.1-.5.1a2.2,2.2,0,0,1-.8-.1,2.09,2.09,0,0,1-.6-.4,1.76,1.76,0,0,1-.4-.5,1.48,1.48,0,0,1-.1-.7,1.5,1.5,0,0,1,.4-1.1,1.43,1.43,0,0,1,1.1-.5l1.6-.2v-.1a1.42,1.42,0,0,0-.2-.6c-.1-.2-.4-.2-.7-.2h-.4c-.1,0-.3.1-.4.1s-.3.1-.4.1a.37.37,0,0,1-.3.1L72,10.6a4.18,4.18,0,0,1,1-.4,5,5,0,0,1,1.2-.2,2.2,2.2,0,0,1,.8.1c.3.1.5.1.7.3a1,1,0,0,1,.5.6,2,2,0,0,1,.2.9v2.2c0,.2,0,.3.1.4s.2.1.3.2l-.6,1a.85.85,0,0,1-.6-.2C75.4,15.5,75.3,15.4,75.2,15.2Zm-1.3-1.7a.71.71,0,0,0-.6.6c0,.2.1.3.2.5s.3.2.6.2a.85.85,0,0,0,.6-.2,1.07,1.07,0,0,0,.2-.6v-.6Z" style="fill:#fff"/><path d="M77.5,8.4h1.4v5.8a.35.35,0,0,0,.4.4h.4l.1,1.2h-1a.75.75,0,0,1-.5-.1c-.2-.1-.3-.1-.4-.2a1.38,1.38,0,0,1-.3-.4.75.75,0,0,1-.1-.5V8.4Z" style="fill:#fff"/><path d="M82,12.1a7.72,7.72,0,0,1,.2-1.5,3.46,3.46,0,0,1,.7-1.2A4.44,4.44,0,0,1,84,8.6a3.19,3.19,0,0,1,1.4-.3,4.1,4.1,0,0,1,1.1.1,3.55,3.55,0,0,1,.9.4,2.34,2.34,0,0,1,.7.7,2.47,2.47,0,0,1,.4.9l-1.5.5a.76.76,0,0,0-.2-.4c-.1-.1-.2-.3-.3-.4a2.19,2.19,0,0,0-.5-.3,1.27,1.27,0,0,0-.6-.1,2.92,2.92,0,0,0-.9.2,2.65,2.65,0,0,0-.6.5,1.14,1.14,0,0,0-.3.8,2.77,2.77,0,0,0-.1.9h0a2.77,2.77,0,0,0,.1.9c.1.3.2.5.3.8s.3.4.6.5a2,2,0,0,0,.9.2,1.27,1.27,0,0,0,.6-.1c.2-.1.3-.2.5-.3a1.38,1.38,0,0,0,.3-.4.76.76,0,0,0,.2-.4l1.4.5c-.1.3-.3.6-.4.9a2.34,2.34,0,0,1-.7.7,3.55,3.55,0,0,1-.9.4,3.75,3.75,0,0,1-1.1.1,3.19,3.19,0,0,1-1.4-.3,4.44,4.44,0,0,1-1.1-.8,3.46,3.46,0,0,1-.7-1.2C82.1,13.1,82,12.6,82,12.1Z" style="fill:#fff"/><path d="M92.4,11.7h-.1a1.27,1.27,0,0,0-.6.1c-.2,0-.3.1-.5.2a.54.54,0,0,0-.3.4,1.48,1.48,0,0,0-.1.7v2.6H89.4V10.2h1.4v.7c.1-.1.1-.2.2-.3s.2-.2.3-.2.3-.1.4-.2.3-.1.5-.1h.2Z" style="fill:#fff"/><path d="M94.5,13.5c0,.2.1.3.2.5s.2.3.3.4a.76.76,0,0,0,.4.2.9.9,0,0,0,.5.1,2,2,0,0,0,.7-.1c.2-.1.5-.2.7-.3l.7,1a4.05,4.05,0,0,1-.9.5,5,5,0,0,1-1.2.2,4.25,4.25,0,0,1-1.1-.2,1.8,1.8,0,0,1-.9-.6,3.49,3.49,0,0,1-.6-.9,2.34,2.34,0,0,1-.2-1.2,3.59,3.59,0,0,1,.2-1.1,4.05,4.05,0,0,1,.5-.9,1.56,1.56,0,0,1,.8-.6,3.59,3.59,0,0,1,1.1-.2,3,3,0,0,1,1,.2A2.1,2.1,0,0,1,98,11.8a3.59,3.59,0,0,1,.2,1.1v.6Zm1.1-2.1a1.14,1.14,0,0,0-.8.3,1.61,1.61,0,0,0-.4.7h2.3a.91.91,0,0,0-.3-.7A1.14,1.14,0,0,0,95.6,11.4Z" style="fill:#fff"/><path d="M102.6,15.7v-.5l-.2.2c-.1.1-.2.1-.3.2s-.2.1-.4.1h-.4a3,3,0,0,1-1-.2,1.56,1.56,0,0,1-.8-.6A4.05,4.05,0,0,1,99,14a3.59,3.59,0,0,1-.2-1.1,3.59,3.59,0,0,1,.2-1.1,4.05,4.05,0,0,1,.5-.9,1.56,1.56,0,0,1,.8-.6,3,3,0,0,1,1-.2,1.88,1.88,0,0,1,.8.2,2.09,2.09,0,0,1,.6.4V8.4h1.4v7.3Zm0-3.2a.6.6,0,0,0-.1-.4c-.1-.1-.1-.2-.2-.3a.52.52,0,0,0-.4-.2,1.3,1.3,0,0,0-1,0,1.38,1.38,0,0,0-.4.3.76.76,0,0,0-.2.5,1.27,1.27,0,0,0-.1.6v.1a1.27,1.27,0,0,0,.1.6c.1.2.1.3.2.5a1.38,1.38,0,0,0,.4.3,1.3,1.3,0,0,0,1,0c.1-.1.3-.1.4-.2s.2-.2.2-.3a.6.6,0,0,0,.1-.4Z" style="fill:#fff"/><path d="M105,8.9a.37.37,0,0,1,.1-.3c.1-.1.1-.2.2-.3s.2-.1.3-.2a.5.5,0,0,1,.6,0c.1,0,.2.1.3.2s.1.2.2.3.1.2.1.3a.37.37,0,0,1-.1.3c0,.1-.1.2-.2.3s-.2.1-.3.2-.2.1-.3.1a.37.37,0,0,1-.3-.1c-.1,0-.2-.1-.3-.2s-.1-.2-.2-.3S105,9,105,8.9Zm1.6,6.8h-1.4V10.2h1.4Z" style="fill:#fff"/><path d="M109.8,14.1v.2c0,.1,0,.1.1.1s.1.1.2.1h1l.1,1.2h-1.3a1.61,1.61,0,0,1-1.1-.3,1.25,1.25,0,0,1-.4-1.1V11.4h-1V10.2h1V8.7l1.4-.4v1.9h1.4v1.2h-1.4v2.7Z" style="fill:#fff"/></g><path d="M1254.5,428.66l-1099,299.2-140-312.2,203.9-2.4h0l1035.1,15.4" style="fill:#efc319"/><rect x="159.4" y="430.76" width="1103.4" height="296" style="fill:#fff"/><path d="M1265.3,729.26H156.9v-301H1265.3v301Zm-1103.4-5H1260.3v-291H161.9Z" style="fill:#efc319"/><text transform="translate(26.82 300.53)" style="font-size:11px;font-family:GDSTransportWebsite-Bold, GDS Transport Website;font-weight:700"><tspan style="letter-spacing:-0.06494140625em">T</tspan><tspan x="5.49" y="0">a</tspan><tspan x="11.17" y="0" style="letter-spacing:-0.02978515625em">k</tspan><tspan x="16.79" y="0">e-home pa</tspan><tspan x="67.76" y="0" style="letter-spacing:-0.02197265625em">y</tspan></text><rect x="24.99" y="368.55" width="249.13" height="43.21" style="fill:#fff"/><text transform="translate(40.13 384.32)" style="font-size:10px;font-family:GDSTransportWebsite-Bold, GDS Transport Website;font-weight:700"><tspan style="letter-spacing:-0.078125em">Y</tspan><tspan x="5.33" y="0">ou</tspan><tspan x="16.7" y="0" style="letter-spacing:-0.02099609375em">r</tspan><tspan x="20.27" y="0" style="letter-spacing:-0.02001953125em"> </tspan><tspan x="21.87" y="0">tota</tspan><tspan x="41.09" y="0" style="letter-spacing:-0.02392578125em">l</tspan><tspan x="43.78" y="0" style="letter-spacing:-0.02001953125em"> </tspan><tspan x="45.39" y="0">ta</tspan><tspan x="54.7" y="0" style="letter-spacing:-0.02978515625em">k</tspan><tspan x="59.81" y="0">e-home pa</tspan><tspan x="106.15" y="0" style="letter-spacing:-0.02197265625em">y</tspan><tspan x="110.92" y="0" xml:space="preserve"> fo</tspan><tspan x="122.06" y="0" style="letter-spacing:-0.02099609375em">r</tspan><tspan x="125.63" y="0" style="letter-spacing:-0.02001953125em"> </tspan><tspan x="127.23" y="0">this period is £x.xx</tspan></text><rect x="29.8" y="372.87" width="4.32" height="34.62" style="fill:#dee0e2"/><rect x="40.2" y="392.1" width="226" height="2.5"/><rect x="40.2" y="401.3" width="226" height="2.5"/><text transform="translate(26.82 338.25)" style="font-size:7px;font-family:GDSTransportWebsite, GDS Transport Website">Earnings<tspan x="26.31" y="0" style="letter-spacing:-0.01611328125em"> </tspan><tspan x="27.6" y="0">f</tspan><tspan x="29.83" y="0" style="letter-spacing:-0.01220703125em">r</tspan><tspan x="32.2" y="0">om empl</tspan><tspan x="58.29" y="0" style="letter-spacing:-0.0078125em">o</tspan><tspan x="62.09" y="0">yment</tspan><tspan x="0" y="14" style="letter-spacing:-0.080078125em">T</tspan><tspan x="3.09" y="14" style="letter-spacing:-0.0078125em">o</tspan><tspan x="6.89" y="14">ta</tspan><tspan x="12.99" y="14" style="letter-spacing:-0.02685546875em">l</tspan><tspan x="14.65" y="14" xml:space="preserve"> earnings</tspan></text><text transform="translate(258.11 338.25)" style="font-size:7px;font-family:GDSTransportWebsite, GDS Transport Website">£x.xx<tspan style="font-family:GDSTransportWebsite-Bold, GDS Transport Website;font-weight:700"><tspan x="-1.19" y="14">£x.xx</tspan></tspan></text><rect x="27.8" y="342.75" width="246.32" height="0.41"/><rect x="225.7" y="455.61" width="949.5" height="67.9" style="fill:#efc319"/><text transform="translate(237.08 502.65)" style="font-size:44px;font-family:GDSTransportWebsite-Bold, GDS Transport Website;font-weight:700"><tspan style="letter-spacing:-0.078125em">Y</tspan><tspan x="23.44" y="0">ou</tspan><tspan x="73.48" y="0" style="letter-spacing:-0.02099609375em">r</tspan><tspan x="89.18" y="0" style="letter-spacing:-0.02001953125em"> </tspan><tspan x="96.23" y="0">tota</tspan><tspan x="180.81" y="0" style="letter-spacing:-0.02392578125em">l</tspan><tspan x="192.65" y="0" style="letter-spacing:-0.02001953125em"> </tspan><tspan x="199.7" y="0">ta</tspan><tspan x="240.67" y="0" style="letter-spacing:-0.02978515625em">k</tspan><tspan x="263.16" y="0">e-home pa</tspan><tspan x="467.05" y="0" style="letter-spacing:-0.02197265625em">y</tspan><tspan x="488.04" y="0" xml:space="preserve"> fo</tspan><tspan x="537.07" y="0" style="letter-spacing:-0.02099609375em">r</tspan><tspan x="552.77" y="0" style="letter-spacing:-0.02001953125em"> </tspan><tspan x="559.82" y="0">this period is £x.xx</tspan><tspan style="font-size:36px;font-family:GDSTransportWebsite, GDS Transport Website;font-weight:400"><tspan x="0" y="67.2" style="letter-spacing:-0.01416015625em">E</tspan><tspan x="20.51" y="67.2" style="letter-spacing:-0.009765625em">v</tspan><tspan x="37.2" y="67.2">er</tspan><tspan x="68.7" y="67.2" style="letter-spacing:-0.02197265625em">y</tspan><tspan x="84.71" y="67.2" xml:space="preserve"> £1.00</tspan><tspan x="180.47" y="67.2" style="letter-spacing:-0.02294921875em"> </tspan><tspan x="186.86" y="67.2" style="letter-spacing:-0.0078125em">y</tspan><tspan x="203.38" y="67.2">ou earn in</tspan><tspan x="353.97" y="67.2" style="letter-spacing:-0.02001953125em"> </tspan><tspan x="360.46" y="67.2">ta</tspan><tspan x="391.85" y="67.2" style="letter-spacing:-0.02197265625em">k</tspan><tspan x="409.82" y="67.2">e-home p</tspan><tspan x="552.52" y="67.2" style="letter-spacing:-0.00390625em">a</tspan><tspan x="570.48" y="67.2" style="letter-spacing:-0.02197265625em">y</tspan><tspan x="586.49" y="67.2"> </tspan><tspan x="593.7" y="67.2" style="letter-spacing:-0.01220703125em">r</tspan><tspan x="605.9" y="67.2">edu</tspan><tspan x="664.44" y="67.2" style="letter-spacing:-0.0048828125em">c</tspan><tspan x="682.66" y="67.2">es</tspan><tspan x="718.08" y="67.2" style="letter-spacing:-0.02294921875em"> </tspan><tspan x="724.46" y="67.2" style="letter-spacing:-0.0078125em">y</tspan><tspan x="740.99" y="67.2">ou</tspan><tspan x="780.26" y="67.2" style="letter-spacing:-0.02197265625em">r</tspan><tspan x="792.1" y="67.2"> </tspan><tspan x="799.31" y="67.2" style="letter-spacing:-0.0068359375em">U</tspan><tspan x="824.08" y="67.2">ni</tspan><tspan x="851.91" y="67.2" style="letter-spacing:-0.009765625em">v</tspan><tspan x="868.59" y="67.2">ersa</tspan><tspan x="934.75" y="67.2" style="letter-spacing:-0.02685546875em">l</tspan><tspan x="943.29" y="67.2"> </tspan><tspan x="0" y="110.4">C</tspan><tspan x="24.12" y="110.4" style="letter-spacing:-0.01220703125em">r</tspan><tspan x="36.32" y="110.4">edit </tspan><tspan x="104.22" y="110.4" style="letter-spacing:-0.0078125em">b</tspan><tspan x="124.14" y="110.4" style="letter-spacing:-0.02197265625em">y</tspan><tspan x="140.15" y="110.4" xml:space="preserve"> 63 pen</tspan><tspan x="256.89" y="110.4" style="letter-spacing:-0.0048828125em">c</tspan><tspan x="275.12" y="110.4">e</tspan></tspan><tspan style="font-family:GDSTransportWebsite, GDS Transport Website;font-weight:400"><tspan x="0" y="187.2">The</tspan><tspan x="69.82" y="187.2" style="letter-spacing:-0.02001953125em"> </tspan><tspan x="77.75" y="187.2">t</tspan><tspan x="93.99" y="187.2" style="letter-spacing:-0.0078125em">o</tspan><tspan x="117.84" y="187.2">ta</tspan><tspan x="156.21" y="187.2" style="letter-spacing:-0.02685546875em">l</tspan><tspan x="166.65" y="187.2" style="letter-spacing:-0.02099609375em"> </tspan><tspan x="174.54" y="187.2" style="letter-spacing:-0.0048828125em">w</tspan><tspan x="205.78" y="187.2">e</tspan><tspan x="228.83" y="187.2" style="letter-spacing:-0.02001953125em"> </tspan><tspan x="236.76" y="187.2">ta</tspan><tspan x="275.13" y="187.2" style="letter-spacing:-0.02197265625em">k</tspan><tspan x="297.09" y="187.2">e </tspan><tspan x="328.95" y="187.2" style="letter-spacing:-0.005859375em">o</tspan><tspan x="352.88" y="187.2">f</tspan><tspan x="366.91" y="187.2" style="letter-spacing:-0.02001953125em">f</tspan><tspan x="380.06" y="187.2" style="letter-spacing:-0.01611328125em"> </tspan><tspan x="388.16" y="187.2" style="letter-spacing:-0.0078125em">f</tspan><tspan x="401.84" y="187.2">o</tspan><tspan x="426.03" y="187.2" style="letter-spacing:-0.02197265625em">r</tspan><tspan x="440.52" y="187.2" style="letter-spacing:-0.02001953125em"> </tspan><tspan x="448.44" y="187.2">ta</tspan><tspan x="486.81" y="187.2" style="letter-spacing:-0.02197265625em">k</tspan><tspan x="508.77" y="187.2">e home p</tspan><tspan x="680.99" y="187.2" style="letter-spacing:-0.00390625em">a</tspan><tspan x="702.95" y="187.2" style="letter-spacing:-0.02197265625em">y</tspan><tspan x="722.52" y="187.2" xml:space="preserve"> is £x.xx</tspan></tspan></text><rect x="225.7" y="638.54" width="1001.61" height="2"/><rect x="187.26" y="455.61" width="14.08" height="242.58" style="fill:#dee0e2"/><path d="M27,308.14h4.32v.69H29.56v5.61h-.78v-5.61H27Z"/><path d="M34,314a1.58,1.58,0,0,1-.54.38,1.74,1.74,0,0,1-.79.16,1.79,1.79,0,0,1-.62-.1,1.37,1.37,0,0,1-.49-.27,1.23,1.23,0,0,1-.33-.42,1.32,1.32,0,0,1-.12-.57,1.21,1.21,0,0,1,.09-.48,1,1,0,0,1,.24-.38,1.26,1.26,0,0,1,.37-.27,1.86,1.86,0,0,1,.49-.14l1.59-.21v-.29a1.1,1.1,0,0,0-.08-.43.64.64,0,0,0-.21-.27.86.86,0,0,0-.32-.15,1.61,1.61,0,0,0-.39,0,2.34,2.34,0,0,0-.71.1,4.55,4.55,0,0,0-.59.25l-.27-.59a2.83,2.83,0,0,1,.81-.31,3.42,3.42,0,0,1,.83-.1,1.88,1.88,0,0,1,1.25.37,1.38,1.38,0,0,1,.42,1.09v2.07a.7.7,0,0,0,.09.37A.61.61,0,0,0,35,314l-.42.53a.89.89,0,0,1-.36-.19.75.75,0,0,1-.21-.32Zm-1.32-1.55a1.59,1.59,0,0,0-.33.08.71.71,0,0,0-.26.13.55.55,0,0,0-.17.2.6.6,0,0,0-.05.29.81.81,0,0,0,.07.35.86.86,0,0,0,.2.26,1.08,1.08,0,0,0,.3.16,1.34,1.34,0,0,0,.35,0,1.4,1.4,0,0,0,.41-.06,1,1,0,0,0,.35-.16,1,1,0,0,0,.25-.26.68.68,0,0,0,.09-.35v-.87Z"/><path d="M36.75,312.16,38.86,310h.93l-1.71,1.78,1.79,2.71H39l-1.41-2.21-.81.83v1.38H36v-6.3h.74Z"/><path d="M41,312.42a2.21,2.21,0,0,0,.13.59,1.44,1.44,0,0,0,.29.46,1.19,1.19,0,0,0,.43.3,1.23,1.23,0,0,0,.55.11,1.69,1.69,0,0,0,.66-.12,2.51,2.51,0,0,0,.52-.32L44,314a2.46,2.46,0,0,1-.71.4,2.28,2.28,0,0,1-.89.16,2.1,2.1,0,0,1-.88-.18,1.79,1.79,0,0,1-.67-.48,2,2,0,0,1-.43-.74,2.75,2.75,0,0,1-.15-.93,2.81,2.81,0,0,1,.15-.94,2,2,0,0,1,.41-.74,1.77,1.77,0,0,1,.64-.48,1.9,1.9,0,0,1,.83-.18,1.71,1.71,0,0,1,.8.18,1.67,1.67,0,0,1,.61.48,2.07,2.07,0,0,1,.38.74,3,3,0,0,1,.14.93v.23Zm1.24-1.91a1,1,0,0,0-.5.11,1.1,1.1,0,0,0-.38.29,1.52,1.52,0,0,0-.25.43,1.64,1.64,0,0,0-.1.49h2.38a2.1,2.1,0,0,0-.09-.5,1.42,1.42,0,0,0-.23-.42,1.12,1.12,0,0,0-.36-.29A.91.91,0,0,0,42.24,310.51Z"/><path d="M44.72,311.54h1.89v.65H44.72Z"/><path d="M47.47,308.14h.73v2.32a1.45,1.45,0,0,1,.57-.45,1.79,1.79,0,0,1,.75-.15,1.6,1.6,0,0,1,.65.12,1.39,1.39,0,0,1,.47.34,1.42,1.42,0,0,1,.29.49,1.85,1.85,0,0,1,.09.58v3.05h-.74v-2.82a1.51,1.51,0,0,0-.07-.5.88.88,0,0,0-.2-.34.81.81,0,0,0-.29-.19,1,1,0,0,0-.36-.06,1.25,1.25,0,0,0-.42.08,1.1,1.1,0,0,0-.37.23,1,1,0,0,0-.26.39,1.31,1.31,0,0,0-.11.55v2.66h-.73Z"/><path d="M54.13,309.86A2,2,0,0,1,55,310a1.72,1.72,0,0,1,.65.48,2.14,2.14,0,0,1,.42.74,2.81,2.81,0,0,1,.15.94,2.75,2.75,0,0,1-.15.93,2.14,2.14,0,0,1-.42.74,1.72,1.72,0,0,1-.65.48,2,2,0,0,1-.85.18,1.92,1.92,0,0,1-.84-.18,1.84,1.84,0,0,1-.66-.48,2.14,2.14,0,0,1-.42-.74,2.75,2.75,0,0,1-.15-.93,2.81,2.81,0,0,1,.15-.94,2.14,2.14,0,0,1,.42-.74,1.84,1.84,0,0,1,.66-.48A1.92,1.92,0,0,1,54.13,309.86Zm0,4a1.17,1.17,0,0,0,.57-.13,1.29,1.29,0,0,0,.41-.36,1.6,1.6,0,0,0,.24-.53,2.18,2.18,0,0,0,.09-.63v-.06a2.25,2.25,0,0,0-.09-.64,1.51,1.51,0,0,0-.24-.53,1.29,1.29,0,0,0-.41-.36,1.17,1.17,0,0,0-.57-.13,1.13,1.13,0,0,0-.56.13,1.29,1.29,0,0,0-.41.36,1.73,1.73,0,0,0-.25.53,2.67,2.67,0,0,0-.08.64v.06a2.59,2.59,0,0,0,.08.63,1.85,1.85,0,0,0,.25.53,1.29,1.29,0,0,0,.41.36A1.13,1.13,0,0,0,54.13,313.88Z"/><path d="M60.65,314.44h-.74v-2.83a1.51,1.51,0,0,0-.07-.5.87.87,0,0,0-.19-.33.7.7,0,0,0-.29-.19,1,1,0,0,0-.35-.06.94.94,0,0,0-.36.08.77.77,0,0,0-.32.22,1.24,1.24,0,0,0-.22.39,1.62,1.62,0,0,0-.09.57v2.65h-.74V310H58v.51a1.41,1.41,0,0,1,1.18-.6,2.11,2.11,0,0,1,.33,0,1.58,1.58,0,0,1,.34.13,1.39,1.39,0,0,1,.31.23,1.07,1.07,0,0,1,.23.35,1.26,1.26,0,0,1,.29-.35A1.41,1.41,0,0,1,61,310a1.82,1.82,0,0,1,.37-.13,1.69,1.69,0,0,1,.38,0,1.64,1.64,0,0,1,.65.12,1.52,1.52,0,0,1,.47.33,1.5,1.5,0,0,1,.3.48,1.85,1.85,0,0,1,.1.57v3.08h-.74v-2.83a1.5,1.5,0,0,0-.08-.5.77.77,0,0,0-.2-.33.7.7,0,0,0-.29-.19,1.07,1.07,0,0,0-.35-.06.94.94,0,0,0-.36.08.77.77,0,0,0-.32.22,1.24,1.24,0,0,0-.22.39,1.62,1.62,0,0,0-.09.57Z"/><path d="M65.11,312.42a2.21,2.21,0,0,0,.13.59,1.29,1.29,0,0,0,.29.46,1.19,1.19,0,0,0,.43.3,1.23,1.23,0,0,0,.55.11,1.69,1.69,0,0,0,.66-.12,2.8,2.8,0,0,0,.52-.32l.37.53a2.52,2.52,0,0,1-1.59.56,2.1,2.1,0,0,1-.88-.18,1.79,1.79,0,0,1-.67-.48,2,2,0,0,1-.43-.74,2.75,2.75,0,0,1-.15-.93,3.09,3.09,0,0,1,.14-.94,2.14,2.14,0,0,1,.42-.74,1.77,1.77,0,0,1,.64-.48,1.9,1.9,0,0,1,.83-.18,1.74,1.74,0,0,1,.8.18,1.67,1.67,0,0,1,.61.48,2.25,2.25,0,0,1,.38.74,3,3,0,0,1,.14.93v.23Zm1.24-1.91a1.06,1.06,0,0,0-.51.11,1.16,1.16,0,0,0-.37.29,1.31,1.31,0,0,0-.25.43,1.64,1.64,0,0,0-.1.49H67.5a2.1,2.1,0,0,0-.09-.5,1.42,1.42,0,0,0-.23-.42,1.12,1.12,0,0,0-.36-.29A.93.93,0,0,0,66.35,310.51Z"/><path d="M71.86,310v.51a1.56,1.56,0,0,1,.54-.44,1.94,1.94,0,0,1,.78-.16,1.77,1.77,0,0,1,1.39.66,2.46,2.46,0,0,1,.38.74,3.23,3.23,0,0,1,0,1.88,2.3,2.3,0,0,1-.38.73,1.77,1.77,0,0,1-1.39.66,1.94,1.94,0,0,1-.78-.16,1.56,1.56,0,0,1-.54-.44v1.88h-.73V310Zm2.46,2.22a2.69,2.69,0,0,0-.08-.65A1.73,1.73,0,0,0,74,311a1.35,1.35,0,0,0-.4-.35,1.2,1.2,0,0,0-.55-.12,1.16,1.16,0,0,0-.51.1,1.05,1.05,0,0,0-.38.27,1.4,1.4,0,0,0-.22.42,1.72,1.72,0,0,0-.08.52v.73a1.72,1.72,0,0,0,.08.52,1.4,1.4,0,0,0,.22.42,1.05,1.05,0,0,0,.38.27,1.16,1.16,0,0,0,.51.1,1.2,1.2,0,0,0,.55-.12,1.22,1.22,0,0,0,.4-.35,1.73,1.73,0,0,0,.25-.53,2.69,2.69,0,0,0,.08-.65Z"/><path d="M78.73,314a1.54,1.54,0,0,1-.53.38,1.8,1.8,0,0,1-.79.16,1.75,1.75,0,0,1-.62-.1,1.42,1.42,0,0,1-.5-.27,1.23,1.23,0,0,1-.33-.42,1.32,1.32,0,0,1-.12-.57,1.21,1.21,0,0,1,.09-.48,1.07,1.07,0,0,1,.24-.38,1.19,1.19,0,0,1,.38-.27,1.76,1.76,0,0,1,.49-.14l1.58-.21v-.29a.94.94,0,0,0-.08-.43.64.64,0,0,0-.21-.27.79.79,0,0,0-.32-.15,1.61,1.61,0,0,0-.39,0,2.24,2.24,0,0,0-.7.1,3.61,3.61,0,0,0-.59.25l-.28-.59a3.08,3.08,0,0,1,.81-.31,3.44,3.44,0,0,1,.84-.1,1.87,1.87,0,0,1,1.24.37,1.38,1.38,0,0,1,.42,1.09v2.07a.7.7,0,0,0,.09.37.61.61,0,0,0,.28.24l-.42.53a.89.89,0,0,1-.36-.19.75.75,0,0,1-.21-.32Zm-1.31-1.55a1.54,1.54,0,0,0-.34.08.71.71,0,0,0-.26.13.53.53,0,0,0-.16.2.6.6,0,0,0-.06.29.81.81,0,0,0,.07.35.86.86,0,0,0,.2.26,1.08,1.08,0,0,0,.3.16,1.36,1.36,0,0,0,.36,0,1.39,1.39,0,0,0,.4-.06,1,1,0,0,0,.35-.16.88.88,0,0,0,.25-.26.68.68,0,0,0,.09-.35v-.87Z"/><path d="M80.17,310H81l1.1,3.71L83.17,310H84l-1.63,5.17a1.42,1.42,0,0,1-.19.39,1,1,0,0,1-.27.24,1.06,1.06,0,0,1-.34.12,1.61,1.61,0,0,1-.39,0l-.38,0a3,3,0,0,1-.42-.06l.11-.64.19,0,.19,0h.21a.61.61,0,0,0,.38-.11.59.59,0,0,0,.19-.34l0-.21Z"/><path d="M86.34,308.65a.41.41,0,0,1,0-.19.5.5,0,0,1,.11-.17.64.64,0,0,1,.16-.11.52.52,0,0,1,.4,0,.91.91,0,0,1,.16.11.71.71,0,0,1,.11.17.41.41,0,0,1,0,.19.45.45,0,0,1,0,.2.71.71,0,0,1-.11.17.91.91,0,0,1-.16.11.5.5,0,0,1-.56-.11.5.5,0,0,1-.11-.17A.45.45,0,0,1,86.34,308.65Zm.87,5.79h-.74V310h.74Z"/><path d="M91.57,313.2a1.13,1.13,0,0,1-.14.56,1.25,1.25,0,0,1-.37.42,1.59,1.59,0,0,1-.52.26,2.15,2.15,0,0,1-.61.09,2.75,2.75,0,0,1-1-.17,2.58,2.58,0,0,1-.81-.49l.41-.52a2.51,2.51,0,0,0,.24.19,2.32,2.32,0,0,0,.31.19,1.66,1.66,0,0,0,.37.14,1.42,1.42,0,0,0,.42.06,1.27,1.27,0,0,0,.34-.05.87.87,0,0,0,.29-.14.8.8,0,0,0,.2-.21.64.64,0,0,0,.07-.28.56.56,0,0,0-.08-.3.58.58,0,0,0-.21-.2,1.4,1.4,0,0,0-.3-.15l-.37-.12-.29-.09a3.52,3.52,0,0,1-.45-.18,1.53,1.53,0,0,1-.39-.25,1.17,1.17,0,0,1-.27-.35,1,1,0,0,1-.1-.48,1.06,1.06,0,0,1,.1-.46,1,1,0,0,1,.3-.4,1.62,1.62,0,0,1,.5-.3,2.29,2.29,0,0,1,.73-.11,2.15,2.15,0,0,1,.85.16,2.39,2.39,0,0,1,.67.38l-.39.53a1.54,1.54,0,0,0-.23-.18,1.83,1.83,0,0,0-.28-.14,1.63,1.63,0,0,0-.31-.11,1.87,1.87,0,0,0-.32,0,1.22,1.22,0,0,0-.41.06.86.86,0,0,0-.27.14.66.66,0,0,0-.14.2.41.41,0,0,0,0,.21.5.5,0,0,0,.06.26.77.77,0,0,0,.18.18,1.36,1.36,0,0,0,.24.13l.29.1.37.13a4.6,4.6,0,0,1,.49.18,2,2,0,0,1,.38.23,1.23,1.23,0,0,1,.33.39A1.07,1.07,0,0,1,91.57,313.2Z"/><path d="M98.2,313.57,99,310h.78l-1.1,4.49h-.94l-.91-3.6-.93,3.6H95L93.91,310h.8l.78,3.62.94-3.62h.84Z"/><path d="M100.75,308.14h.73v2.32a1.38,1.38,0,0,1,.57-.45,1.79,1.79,0,0,1,.75-.15,1.6,1.6,0,0,1,.65.12,1.39,1.39,0,0,1,.47.34,1.42,1.42,0,0,1,.29.49,1.85,1.85,0,0,1,.09.58v3.05h-.74v-2.82a1.51,1.51,0,0,0-.07-.5.88.88,0,0,0-.2-.34.81.81,0,0,0-.29-.19,1.13,1.13,0,0,0-.36-.06,1.2,1.2,0,0,0-.42.08,1.1,1.1,0,0,0-.37.23,1,1,0,0,0-.26.39,1.31,1.31,0,0,0-.11.55v2.66h-.73Z"/><path d="M108.17,314a1.49,1.49,0,0,1-.54.38,1.73,1.73,0,0,1-.78.16,1.75,1.75,0,0,1-.62-.1,1.42,1.42,0,0,1-.5-.27,1.23,1.23,0,0,1-.33-.42,1.32,1.32,0,0,1-.12-.57,1.21,1.21,0,0,1,.09-.48,1,1,0,0,1,.24-.38A1.26,1.26,0,0,1,106,312a1.83,1.83,0,0,1,.5-.14l1.58-.21v-.29A.94.94,0,0,0,108,311a.64.64,0,0,0-.21-.27.79.79,0,0,0-.32-.15,1.61,1.61,0,0,0-.39,0,2.24,2.24,0,0,0-.7.1,4.16,4.16,0,0,0-.6.25l-.27-.59a3.08,3.08,0,0,1,.81-.31,3.44,3.44,0,0,1,.84-.1,1.87,1.87,0,0,1,1.24.37,1.38,1.38,0,0,1,.42,1.09v2.07a.7.7,0,0,0,.09.37.61.61,0,0,0,.28.24l-.42.53a.89.89,0,0,1-.36-.19.75.75,0,0,1-.21-.32Zm-1.32-1.55a1.59,1.59,0,0,0-.33.08.71.71,0,0,0-.26.13.53.53,0,0,0-.16.2.6.6,0,0,0-.06.29.81.81,0,0,0,.07.35.86.86,0,0,0,.2.26,1.08,1.08,0,0,0,.3.16,1.34,1.34,0,0,0,.35,0,1.4,1.4,0,0,0,.41-.06,1,1,0,0,0,.35-.16,1,1,0,0,0,.25-.26.68.68,0,0,0,.09-.35v-.87Z"/><path d="M111.3,313.32a1.5,1.5,0,0,0,0,.22.36.36,0,0,0,.07.17.41.41,0,0,0,.18.12.86.86,0,0,0,.31,0h.27l.16,0,.13,0,.07.65-.26,0-.25,0h-.29a1.86,1.86,0,0,1-.48-.06.86.86,0,0,1-.36-.17.79.79,0,0,1-.23-.33,1.34,1.34,0,0,1-.08-.48V310.6h-.85V310h.85v-1.47l.74-.26V310h1.25v.65H111.3Z"/><path d="M114,308.06a.64.64,0,0,1,.24.05.5.5,0,0,1,.19.13.57.57,0,0,1,.13.21.76.76,0,0,1,0,.27,1,1,0,0,1-.06.32,1,1,0,0,1-.17.32,1.39,1.39,0,0,1-.73.46l-.09,0-.1-.3h.06a1.58,1.58,0,0,0,.36-.2.76.76,0,0,0,.21-.28H114a.41.41,0,0,1-.19,0,.54.54,0,0,1-.16-.1.91.91,0,0,1-.11-.16.58.58,0,0,1,0-.19.59.59,0,0,1,0-.2.64.64,0,0,1,.11-.16.57.57,0,0,1,.16-.11A.48.48,0,0,1,114,308.06Z"/><path d="M118.71,313.2a1.13,1.13,0,0,1-.14.56,1.22,1.22,0,0,1-.36.42,1.64,1.64,0,0,1-.53.26,2.1,2.1,0,0,1-.61.09,2.8,2.8,0,0,1-.95-.17,2.43,2.43,0,0,1-.8-.49l.4-.52a3.39,3.39,0,0,0,.56.38,1.35,1.35,0,0,0,.37.14,1.4,1.4,0,0,0,.41.06,1.34,1.34,0,0,0,.35-.05,1,1,0,0,0,.29-.14.76.76,0,0,0,.19-.21.53.53,0,0,0,.07-.28.56.56,0,0,0-.07-.3.58.58,0,0,0-.21-.2,1.28,1.28,0,0,0-.31-.15l-.37-.12-.28-.09a3.66,3.66,0,0,1-.46-.18,2,2,0,0,1-.39-.25,1,1,0,0,1-.26-.35,1,1,0,0,1-.1-.48,1.22,1.22,0,0,1,.09-.46,1.27,1.27,0,0,1,.3-.4,1.56,1.56,0,0,1,.51-.3,2.4,2.4,0,0,1,1.58,0,2.33,2.33,0,0,1,.66.38l-.38.53a2.31,2.31,0,0,0-.23-.18,2.44,2.44,0,0,0-.28-.14,1.73,1.73,0,0,0-.32-.11,1.65,1.65,0,0,0-.32,0,1.16,1.16,0,0,0-.4.06.68.68,0,0,0-.27.14.55.55,0,0,0-.15.2.54.54,0,0,0,0,.21.5.5,0,0,0,.07.26.58.58,0,0,0,.17.18l.25.13.29.1.37.13c.17.05.33.12.48.18a1.82,1.82,0,0,1,.39.23,1.08,1.08,0,0,1,.32.39A1.07,1.07,0,0,1,118.71,313.2Z"/><path d="M121.62,308.14h.73v5.29a1.12,1.12,0,0,0,0,.2.61.61,0,0,0,.07.14.22.22,0,0,0,.14.08.58.58,0,0,0,.21,0h.46l.07.62-.25,0-.25,0h-.25a1.5,1.5,0,0,1-.37,0,.81.81,0,0,1-.31-.15.79.79,0,0,1-.2-.27,1,1,0,0,1-.07-.41Z"/><path d="M124.52,312.42a2.21,2.21,0,0,0,.13.59,1.44,1.44,0,0,0,.29.46,1.19,1.19,0,0,0,.43.3,1.26,1.26,0,0,0,.55.11,1.69,1.69,0,0,0,.66-.12,2.51,2.51,0,0,0,.52-.32l.38.53a2.41,2.41,0,0,1-.7.4,2.35,2.35,0,0,1-.89.16,2.14,2.14,0,0,1-.89-.18,1.79,1.79,0,0,1-.67-.48,2,2,0,0,1-.43-.74,2.75,2.75,0,0,1-.15-.93,2.81,2.81,0,0,1,.15-.94,2.12,2.12,0,0,1,.41-.74A1.81,1.81,0,0,1,125,310a1.84,1.84,0,0,1,.83-.18,1.77,1.77,0,0,1,.8.18,1.64,1.64,0,0,1,.6.48,2.09,2.09,0,0,1,.39.74,3,3,0,0,1,.13.93v.23Zm1.24-1.91a1,1,0,0,0-.5.11,1.2,1.2,0,0,0-.38.29,1.49,1.49,0,0,0-.24.43,1.66,1.66,0,0,0-.11.49h2.38a2.1,2.1,0,0,0-.09-.5,1.22,1.22,0,0,0-.23-.42,1.09,1.09,0,0,0-.35-.29A1,1,0,0,0,125.76,310.51Z"/><path d="M129.79,310h.89v.65h-.89v3.84h-.74V310.6h-.75V310h.75v-.84a1.22,1.22,0,0,1,.09-.49.82.82,0,0,1,.26-.32,1,1,0,0,1,.39-.19,2.57,2.57,0,0,1,.5-.05l.45,0,.27,0-.06.63h-.64a.67.67,0,0,0-.26.05.48.48,0,0,0-.16.12.53.53,0,0,0-.08.17,1.36,1.36,0,0,0,0,.2Z"/><path d="M132.77,313.32a1.55,1.55,0,0,0,0,.22.38.38,0,0,0,.08.17.43.43,0,0,0,.17.12.9.9,0,0,0,.31,0h.28l.16,0,.12,0,.08.65-.26,0-.26,0h-.28a1.75,1.75,0,0,1-.48-.06.86.86,0,0,1-.36-.17.79.79,0,0,1-.23-.33,1.34,1.34,0,0,1-.08-.48V310.6h-.85V310H132v-1.47l.74-.26V310H134v.65h-1.25Z"/><path d="M139.29,314a1.58,1.58,0,0,1-.54.38,1.77,1.77,0,0,1-.79.16,1.79,1.79,0,0,1-.62-.1,1.37,1.37,0,0,1-.49-.27,1.23,1.23,0,0,1-.33-.42,1.32,1.32,0,0,1-.12-.57,1.42,1.42,0,0,1,.08-.48,1.09,1.09,0,0,1,.25-.38,1.26,1.26,0,0,1,.37-.27,1.86,1.86,0,0,1,.49-.14l1.59-.21v-.29a1.1,1.1,0,0,0-.08-.43.64.64,0,0,0-.21-.27.86.86,0,0,0-.32-.15,1.61,1.61,0,0,0-.39,0,2.34,2.34,0,0,0-.71.1,4,4,0,0,0-.59.25l-.27-.59a2.83,2.83,0,0,1,.81-.31,3.42,3.42,0,0,1,.83-.1,1.88,1.88,0,0,1,1.25.37,1.38,1.38,0,0,1,.42,1.09v2.07a.7.7,0,0,0,.09.37.61.61,0,0,0,.28.24l-.42.53a.89.89,0,0,1-.36-.19.87.87,0,0,1-.22-.32ZM138,312.44a1.59,1.59,0,0,0-.33.08.64.64,0,0,0-.26.13.55.55,0,0,0-.17.2.6.6,0,0,0-.06.29.82.82,0,0,0,.08.35.86.86,0,0,0,.2.26,1,1,0,0,0,.3.16,1.34,1.34,0,0,0,.35,0,1.45,1.45,0,0,0,.41-.06,1,1,0,0,0,.35-.16,1,1,0,0,0,.25-.26.68.68,0,0,0,.09-.35v-.87Z"/><path d="M142.31,310h.89v.65h-.89v3.84h-.74V310.6h-.75V310h.75v-.84a1.22,1.22,0,0,1,.09-.49.82.82,0,0,1,.26-.32,1,1,0,0,1,.39-.19,2.57,2.57,0,0,1,.5-.05l.45,0,.27,0-.06.63h-.64a.67.67,0,0,0-.26.05.48.48,0,0,0-.16.12.53.53,0,0,0-.08.17,1.36,1.36,0,0,0,0,.2Z"/><path d="M145.29,313.32a1.55,1.55,0,0,0,0,.22.38.38,0,0,0,.08.17.43.43,0,0,0,.17.12.9.9,0,0,0,.31,0h.28l.16,0,.12,0,.08.65-.26,0-.26,0h-.28a1.75,1.75,0,0,1-.48-.06.86.86,0,0,1-.36-.17.79.79,0,0,1-.23-.33,1.34,1.34,0,0,1-.08-.48V310.6h-.85V310h.85v-1.47l.74-.26V310h1.25v.65h-1.25Z"/><path d="M148,312.42a2.21,2.21,0,0,0,.13.59,1.44,1.44,0,0,0,.29.46,1.19,1.19,0,0,0,.43.3,1.23,1.23,0,0,0,.55.11,1.69,1.69,0,0,0,.66-.12,2.8,2.8,0,0,0,.52-.32l.37.53a2.52,2.52,0,0,1-1.59.56,2.1,2.1,0,0,1-.88-.18,1.79,1.79,0,0,1-.67-.48,2,2,0,0,1-.43-.74,2.75,2.75,0,0,1-.15-.93,2.81,2.81,0,0,1,.15-.94,2,2,0,0,1,.41-.74,1.77,1.77,0,0,1,.64-.48,1.9,1.9,0,0,1,.83-.18,1.71,1.71,0,0,1,.8.18,1.67,1.67,0,0,1,.61.48,2.07,2.07,0,0,1,.38.74,3,3,0,0,1,.14.93v.23Zm1.24-1.91a1,1,0,0,0-.5.11,1.1,1.1,0,0,0-.38.29,1.52,1.52,0,0,0-.25.43,1.64,1.64,0,0,0-.1.49h2.38a2.1,2.1,0,0,0-.09-.5,1.42,1.42,0,0,0-.23-.42,1.12,1.12,0,0,0-.36-.29A.91.91,0,0,0,149.19,310.51Z"/><path d="M154.46,310.61h-.12a2.35,2.35,0,0,0-.54.06,1.19,1.19,0,0,0-.46.24,1.26,1.26,0,0,0-.32.47,2.05,2.05,0,0,0-.12.76v2.3h-.73V310h.73v.71a1.18,1.18,0,0,1,.23-.35,1.08,1.08,0,0,1,.32-.24,1.26,1.26,0,0,1,.38-.15,1.92,1.92,0,0,1,.41-.05h.22Z"/><path d="M157.91,313.32a.78.78,0,0,0,0,.22.36.36,0,0,0,.07.17.43.43,0,0,0,.17.12.92.92,0,0,0,.32,0h.27l.16,0,.12,0,.08.65-.26,0-.26,0h-.28a1.75,1.75,0,0,1-.48-.06.86.86,0,0,1-.36-.17.79.79,0,0,1-.23-.33,1.34,1.34,0,0,1-.08-.48V310.6h-.85V310h.85v-1.47l.74-.26V310h1.25v.65h-1.25Z"/><path d="M162.63,314a1.58,1.58,0,0,1-.54.38,1.77,1.77,0,0,1-.79.16,1.79,1.79,0,0,1-.62-.1,1.37,1.37,0,0,1-.49-.27,1.23,1.23,0,0,1-.33-.42,1.32,1.32,0,0,1-.12-.57,1.42,1.42,0,0,1,.08-.48,1.09,1.09,0,0,1,.25-.38,1.14,1.14,0,0,1,.37-.27,1.86,1.86,0,0,1,.49-.14l1.59-.21v-.29a1.1,1.1,0,0,0-.08-.43.64.64,0,0,0-.21-.27.86.86,0,0,0-.32-.15,1.61,1.61,0,0,0-.39,0,2.34,2.34,0,0,0-.71.1,4,4,0,0,0-.59.25l-.28-.59a3,3,0,0,1,.82-.31,3.42,3.42,0,0,1,.83-.1,1.9,1.9,0,0,1,1.25.37,1.38,1.38,0,0,1,.42,1.09v2.07a.7.7,0,0,0,.09.37.56.56,0,0,0,.28.24l-.42.53a.89.89,0,0,1-.36-.19.77.77,0,0,1-.22-.32Zm-1.32-1.55a1.59,1.59,0,0,0-.33.08.64.64,0,0,0-.26.13.55.55,0,0,0-.17.2.6.6,0,0,0-.06.29.82.82,0,0,0,.08.35.86.86,0,0,0,.2.26,1,1,0,0,0,.3.16,1.34,1.34,0,0,0,.35,0,1.45,1.45,0,0,0,.41-.06,1.11,1.11,0,0,0,.35-.16,1,1,0,0,0,.25-.26.68.68,0,0,0,.09-.35v-.87Z"/><path d="M165.6,312.07,164.22,310h.84l1,1.55.91-1.55h.86l-1.37,2.12,1.56,2.37h-.88L166,312.7l-1,1.74h-.88Z"/><path d="M169.32,313.5a.59.59,0,0,1,.23.05.72.72,0,0,1,.2.14.69.69,0,0,1,.13.21.75.75,0,0,1,0,.26,1,1,0,0,1,0,.33,1.14,1.14,0,0,1-.18.32,1.59,1.59,0,0,1-.3.27,1.62,1.62,0,0,1-.42.19l-.1,0-.09-.3.05,0a1,1,0,0,0,.36-.2.69.69,0,0,0,.21-.28h-.09a.45.45,0,0,1-.2,0,.31.31,0,0,1-.15-.1.33.33,0,0,1-.11-.15.52.52,0,0,1,0-.4.42.42,0,0,1,.11-.16.5.5,0,0,1,.16-.11A.65.65,0,0,1,169.32,313.5Z"/><path d="M174,309.06v5.38h-.75v-6.3h1.06l3.32,5.38v-5.38h.75v6.3h-1.06Z"/><path d="M182.41,314a1.54,1.54,0,0,1-.53.38,1.8,1.8,0,0,1-.79.16,1.75,1.75,0,0,1-.62-.1,1.42,1.42,0,0,1-.5-.27,1.23,1.23,0,0,1-.33-.42,1.32,1.32,0,0,1-.12-.57,1.21,1.21,0,0,1,.09-.48,1.07,1.07,0,0,1,.24-.38,1.19,1.19,0,0,1,.38-.27,1.76,1.76,0,0,1,.49-.14l1.58-.21v-.29a.94.94,0,0,0-.08-.43.64.64,0,0,0-.21-.27.79.79,0,0,0-.32-.15,1.61,1.61,0,0,0-.39,0,2.24,2.24,0,0,0-.7.1,3.61,3.61,0,0,0-.59.25l-.28-.59a3.08,3.08,0,0,1,.81-.31,3.44,3.44,0,0,1,.84-.1,1.87,1.87,0,0,1,1.24.37,1.38,1.38,0,0,1,.42,1.09v2.07a.7.7,0,0,0,.09.37.61.61,0,0,0,.28.24l-.42.53a.89.89,0,0,1-.36-.19.75.75,0,0,1-.21-.32Zm-1.31-1.55a1.54,1.54,0,0,0-.34.08.71.71,0,0,0-.26.13.53.53,0,0,0-.16.2.6.6,0,0,0-.06.29.81.81,0,0,0,.07.35.86.86,0,0,0,.2.26,1.08,1.08,0,0,0,.3.16,1.36,1.36,0,0,0,.36,0,1.39,1.39,0,0,0,.4-.06,1,1,0,0,0,.35-.16.88.88,0,0,0,.25-.26.68.68,0,0,0,.09-.35v-.87Z"/><path d="M185.54,313.32a1.5,1.5,0,0,0,0,.22.36.36,0,0,0,.07.17.41.41,0,0,0,.18.12.86.86,0,0,0,.31,0h.28l.15,0,.13,0,.08.65-.27,0-.25,0H186a1.88,1.88,0,0,1-.49-.06.86.86,0,0,1-.36-.17.89.89,0,0,1-.23-.33,1.34,1.34,0,0,1-.08-.48V310.6H184V310h.84v-1.47l.74-.26V310h1.25v.65h-1.25Z"/><path d="M187.57,308.65a.41.41,0,0,1,0-.19.5.5,0,0,1,.11-.17.91.91,0,0,1,.16-.11.48.48,0,0,1,.2,0,.45.45,0,0,1,.2,0,.64.64,0,0,1,.16.11.5.5,0,0,1,.11.17.41.41,0,0,1,0,.19.45.45,0,0,1,0,.2.5.5,0,0,1-.11.17.5.5,0,0,1-.36.15.71.71,0,0,1-.2,0,.91.91,0,0,1-.16-.11.5.5,0,0,1-.11-.17A.45.45,0,0,1,187.57,308.65Zm.87,5.79h-.74V310h.74Z"/><path d="M191.59,309.86a2,2,0,0,1,.85.18,1.81,1.81,0,0,1,.65.48,2.14,2.14,0,0,1,.42.74,2.81,2.81,0,0,1,.15.94,2.75,2.75,0,0,1-.15.93,2.14,2.14,0,0,1-.42.74,1.81,1.81,0,0,1-.65.48,2.1,2.1,0,0,1-1.7,0,1.81,1.81,0,0,1-.65-.48,2.14,2.14,0,0,1-.42-.74,2.75,2.75,0,0,1-.15-.93,2.81,2.81,0,0,1,.15-.94,2.14,2.14,0,0,1,.42-.74,1.81,1.81,0,0,1,.65-.48A2,2,0,0,1,191.59,309.86Zm0,4a1.13,1.13,0,0,0,.56-.13,1.19,1.19,0,0,0,.41-.36,1.62,1.62,0,0,0,.25-.53,2.18,2.18,0,0,0,.08-.63v-.06a2.25,2.25,0,0,0-.08-.64,1.53,1.53,0,0,0-.25-.53,1.19,1.19,0,0,0-.41-.36,1.13,1.13,0,0,0-.56-.13,1.2,1.2,0,0,0-.57.13,1.25,1.25,0,0,0-.4.36,1.53,1.53,0,0,0-.25.53,2.25,2.25,0,0,0-.09.64v.06a2.18,2.18,0,0,0,.09.63,1.62,1.62,0,0,0,.25.53,1.25,1.25,0,0,0,.4.36A1.2,1.2,0,0,0,191.59,313.88Z"/><path d="M194.74,310h.74v.51A1.35,1.35,0,0,1,196,310a1.86,1.86,0,0,1,.75-.15,1.69,1.69,0,0,1,.66.12,1.62,1.62,0,0,1,.47.34,1.39,1.39,0,0,1,.28.49,1.86,1.86,0,0,1,.1.58v3.05h-.74v-2.82a1.5,1.5,0,0,0-.08-.5.86.86,0,0,0-.19-.34.85.85,0,0,0-.3-.19,1,1,0,0,0-.36-.06,1.25,1.25,0,0,0-.42.08,1.16,1.16,0,0,0-.36.23,1.13,1.13,0,0,0-.27.39,1.32,1.32,0,0,0-.1.55v2.66h-.74Z"/><path d="M202.16,314a1.54,1.54,0,0,1-.53.38,2,2,0,0,1-1.41.06,1.42,1.42,0,0,1-.5-.27,1.23,1.23,0,0,1-.33-.42,1.48,1.48,0,0,1-.11-.57,1.21,1.21,0,0,1,.08-.48,1.23,1.23,0,0,1,.24-.38A1.31,1.31,0,0,1,200,312a1.86,1.86,0,0,1,.49-.14l1.59-.21v-.29A1.1,1.1,0,0,0,202,311a.66.66,0,0,0-.22-.27.75.75,0,0,0-.31-.15,1.61,1.61,0,0,0-.39,0,2.3,2.3,0,0,0-.71.1,3.61,3.61,0,0,0-.59.25l-.28-.59a3.08,3.08,0,0,1,.81-.31,3.5,3.5,0,0,1,.84-.1,1.85,1.85,0,0,1,1.24.37,1.39,1.39,0,0,1,.43,1.09v2.07a.7.7,0,0,0,.08.37.67.67,0,0,0,.28.24l-.41.53a1,1,0,0,1-.37-.19.75.75,0,0,1-.21-.32Zm-1.31-1.55a1.69,1.69,0,0,0-.34.08.66.66,0,0,0-.25.13.55.55,0,0,0-.17.2.6.6,0,0,0-.06.29.82.82,0,0,0,.08.35.73.73,0,0,0,.2.26.9.9,0,0,0,.29.16,1.49,1.49,0,0,0,.36,0,1.34,1.34,0,0,0,.4-.06,1,1,0,0,0,.35-.16.77.77,0,0,0,.25-.26.6.6,0,0,0,.1-.35v-.87Z"/><path d="M204.11,308.14h.73v5.29a1.12,1.12,0,0,0,0,.2.61.61,0,0,0,.07.14.22.22,0,0,0,.14.08.58.58,0,0,0,.21,0h.46l.07.62-.25,0-.25,0h-.25a1.5,1.5,0,0,1-.37,0,.81.81,0,0,1-.31-.15.79.79,0,0,1-.2-.27,1,1,0,0,1-.07-.41Z"/><path d="M208.26,308.14H209v6.3h-.78Z"/><path d="M210.51,310h.74v.51a1.32,1.32,0,0,1,.57-.45,1.78,1.78,0,0,1,.74-.15,1.69,1.69,0,0,1,.66.12,1.5,1.5,0,0,1,.47.34,1.26,1.26,0,0,1,.28.49,1.61,1.61,0,0,1,.1.58v3.05h-.74v-2.82a1.51,1.51,0,0,0-.07-.5,1,1,0,0,0-.2-.34.77.77,0,0,0-.3-.19,1,1,0,0,0-.36-.06,1.15,1.15,0,0,0-.41.08,1.1,1.1,0,0,0-.37.23,1.13,1.13,0,0,0-.27.39,1.32,1.32,0,0,0-.1.55v2.66h-.74Z"/><path d="M218.39,313.2a1.13,1.13,0,0,1-.14.56,1.25,1.25,0,0,1-.37.42,1.59,1.59,0,0,1-.52.26,2.1,2.1,0,0,1-.61.09,2.75,2.75,0,0,1-.95-.17,2.58,2.58,0,0,1-.81-.49l.41-.52a2.51,2.51,0,0,0,.24.19l.31.19a1.66,1.66,0,0,0,.37.14,1.42,1.42,0,0,0,.42.06,1.27,1.27,0,0,0,.34-.05.87.87,0,0,0,.29-.14.8.8,0,0,0,.2-.21.53.53,0,0,0,.07-.28.56.56,0,0,0-.08-.3.58.58,0,0,0-.21-.2,1.2,1.2,0,0,0-.3-.15l-.37-.12-.28-.09a3.66,3.66,0,0,1-.46-.18,1.53,1.53,0,0,1-.39-.25,1,1,0,0,1-.37-.83,1.23,1.23,0,0,1,.1-.46,1,1,0,0,1,.3-.4,1.62,1.62,0,0,1,.5-.3,2.29,2.29,0,0,1,.73-.11,2.15,2.15,0,0,1,.85.16,2.26,2.26,0,0,1,.67.38l-.39.53a1.54,1.54,0,0,0-.23-.18,1.83,1.83,0,0,0-.28-.14,1.63,1.63,0,0,0-.31-.11,1.75,1.75,0,0,0-.32,0,1.22,1.22,0,0,0-.41.06.86.86,0,0,0-.27.14.66.66,0,0,0-.14.2.54.54,0,0,0,0,.21.42.42,0,0,0,.07.26.58.58,0,0,0,.17.18,1.17,1.17,0,0,0,.25.13l.28.1.37.13a4.6,4.6,0,0,1,.49.18,2,2,0,0,1,.38.23,1.23,1.23,0,0,1,.33.39A1.07,1.07,0,0,1,218.39,313.2Z"/><path d="M223,314.44h-.74v-.51a1.32,1.32,0,0,1-.57.45,1.79,1.79,0,0,1-.75.15,1.67,1.67,0,0,1-.65-.12,1.5,1.5,0,0,1-.47-.34,1.26,1.26,0,0,1-.28-.49,1.61,1.61,0,0,1-.1-.58V310h.74v2.82a1.47,1.47,0,0,0,.07.5,1,1,0,0,0,.2.34.81.81,0,0,0,.29.19,1.15,1.15,0,0,0,.37.06,1.26,1.26,0,0,0,.43-.08,1,1,0,0,0,.37-.23,1,1,0,0,0,.25-.39,1.32,1.32,0,0,0,.1-.55V310H223Z"/><path d="M226.68,310.61h-.11a2.44,2.44,0,0,0-.55.06,1.35,1.35,0,0,0-.46.24,1.24,1.24,0,0,0-.31.47,2.05,2.05,0,0,0-.12.76v2.3h-.74V310h.74v.71a1.15,1.15,0,0,1,.22-.35,1.22,1.22,0,0,1,.32-.24,1.37,1.37,0,0,1,.38-.15,2,2,0,0,1,.42-.05h.21Z"/><path d="M230.1,314a1.54,1.54,0,0,1-.53.38,2,2,0,0,1-1.41.06,1.42,1.42,0,0,1-.5-.27,1.23,1.23,0,0,1-.33-.42,1.48,1.48,0,0,1-.11-.57,1.21,1.21,0,0,1,.08-.48,1.23,1.23,0,0,1,.24-.38,1.31,1.31,0,0,1,.38-.27,1.86,1.86,0,0,1,.49-.14l1.59-.21v-.29a1.1,1.1,0,0,0-.08-.43.73.73,0,0,0-.21-.27.86.86,0,0,0-.32-.15,1.61,1.61,0,0,0-.39,0,2.3,2.3,0,0,0-.71.1,4,4,0,0,0-.59.25l-.28-.59a3.08,3.08,0,0,1,.81-.31,3.56,3.56,0,0,1,.84-.1,1.85,1.85,0,0,1,1.24.37,1.35,1.35,0,0,1,.43,1.09v2.07a.81.81,0,0,0,.08.37.64.64,0,0,0,.29.24l-.42.53a.89.89,0,0,1-.36-.19.69.69,0,0,1-.22-.32Zm-1.31-1.55a1.69,1.69,0,0,0-.34.08.66.66,0,0,0-.25.13.55.55,0,0,0-.17.2.6.6,0,0,0-.06.29.82.82,0,0,0,.08.35.73.73,0,0,0,.2.26.86.86,0,0,0,.3.16,1.31,1.31,0,0,0,.75,0,.94.94,0,0,0,.35-.16.77.77,0,0,0,.25-.26.6.6,0,0,0,.1-.35v-.87Z"/><path d="M232.08,310h.73v.51a1.45,1.45,0,0,1,.57-.45,1.79,1.79,0,0,1,.75-.15,1.6,1.6,0,0,1,.65.12,1.39,1.39,0,0,1,.47.34,1.42,1.42,0,0,1,.29.49,1.85,1.85,0,0,1,.09.58v3.05h-.74v-2.82a1.51,1.51,0,0,0-.07-.5.88.88,0,0,0-.2-.34.81.81,0,0,0-.29-.19,1.09,1.09,0,0,0-.36-.06,1.25,1.25,0,0,0-.42.08,1.1,1.1,0,0,0-.37.23,1,1,0,0,0-.26.39,1.31,1.31,0,0,0-.11.55v2.66h-.73Z"/><path d="M237.44,312.22a2.67,2.67,0,0,0,.08.64,1.73,1.73,0,0,0,.25.53,1.25,1.25,0,0,0,.4.36,1.2,1.2,0,0,0,.57.13,1.23,1.23,0,0,0,.39-.06,1.07,1.07,0,0,0,.32-.16,1,1,0,0,0,.26-.24,1.81,1.81,0,0,0,.19-.29l.62.35a2.16,2.16,0,0,1-.29.43,1.86,1.86,0,0,1-.41.33,2,2,0,0,1-.5.21,2.2,2.2,0,0,1-.58.08,1.92,1.92,0,0,1-.84-.18,1.84,1.84,0,0,1-.66-.48,2.18,2.18,0,0,1-.42-.73,2.85,2.85,0,0,1-.15-.94,2.81,2.81,0,0,1,.15-.94,2.14,2.14,0,0,1,.42-.74,1.84,1.84,0,0,1,.66-.48,1.92,1.92,0,0,1,.84-.18,2.2,2.2,0,0,1,.58.08,2,2,0,0,1,.5.21,1.86,1.86,0,0,1,.41.33,2.16,2.16,0,0,1,.29.43l-.62.35a1.81,1.81,0,0,0-.19-.29,1,1,0,0,0-.26-.24,1.07,1.07,0,0,0-.32-.16,1.23,1.23,0,0,0-.39-.06,1.2,1.2,0,0,0-.57.13,1.25,1.25,0,0,0-.4.36,1.73,1.73,0,0,0-.25.53,2.67,2.67,0,0,0-.08.64Z"/><path d="M242,312.42a2.21,2.21,0,0,0,.13.59,1.44,1.44,0,0,0,.29.46,1.19,1.19,0,0,0,.43.3,1.23,1.23,0,0,0,.55.11,1.69,1.69,0,0,0,.66-.12,2.51,2.51,0,0,0,.52-.32l.38.53a2.55,2.55,0,0,1-.7.4,2.35,2.35,0,0,1-.89.16,2.14,2.14,0,0,1-.89-.18,1.79,1.79,0,0,1-.67-.48,2,2,0,0,1-.43-.74,2.75,2.75,0,0,1-.15-.93,2.81,2.81,0,0,1,.15-.94,2.12,2.12,0,0,1,.41-.74,1.86,1.86,0,0,1,.64-.48,1.9,1.9,0,0,1,.83-.18,1.71,1.71,0,0,1,.8.18,1.67,1.67,0,0,1,.61.48,2.09,2.09,0,0,1,.39.74,3.37,3.37,0,0,1,.13.93v.23Zm1.24-1.91a1,1,0,0,0-.5.11,1.2,1.2,0,0,0-.38.29,1.49,1.49,0,0,0-.24.43,1.66,1.66,0,0,0-.11.49h2.38a2.1,2.1,0,0,0-.09-.5,1.22,1.22,0,0,0-.23-.42,1.21,1.21,0,0,0-.35-.29A1,1,0,0,0,243.24,310.51Z"/><path d="M250.57,314a1.54,1.54,0,0,1-.53.38,2,2,0,0,1-1.41.06,1.42,1.42,0,0,1-.5-.27,1.23,1.23,0,0,1-.33-.42,1.48,1.48,0,0,1-.11-.57,1.21,1.21,0,0,1,.08-.48,1.23,1.23,0,0,1,.24-.38,1.31,1.31,0,0,1,.38-.27,1.86,1.86,0,0,1,.49-.14l1.59-.21v-.29a1.1,1.1,0,0,0-.08-.43.66.66,0,0,0-.22-.27.75.75,0,0,0-.31-.15,1.61,1.61,0,0,0-.39,0,2.3,2.3,0,0,0-.71.1,3.61,3.61,0,0,0-.59.25l-.28-.59a3.08,3.08,0,0,1,.81-.31,3.5,3.5,0,0,1,.84-.1,1.85,1.85,0,0,1,1.24.37,1.35,1.35,0,0,1,.43,1.09v2.07a.81.81,0,0,0,.08.37.67.67,0,0,0,.28.24l-.41.53a.89.89,0,0,1-.36-.19.69.69,0,0,1-.22-.32Zm-1.31-1.55a1.69,1.69,0,0,0-.34.08.66.66,0,0,0-.25.13.55.55,0,0,0-.17.2.6.6,0,0,0-.06.29.82.82,0,0,0,.08.35.73.73,0,0,0,.2.26.9.9,0,0,0,.29.16,1.49,1.49,0,0,0,.36,0,1.34,1.34,0,0,0,.4-.06,1,1,0,0,0,.35-.16.77.77,0,0,0,.25-.26.6.6,0,0,0,.1-.35v-.87Z"/><path d="M252.55,310h.73v.51a1.45,1.45,0,0,1,.57-.45,1.79,1.79,0,0,1,.75-.15,1.6,1.6,0,0,1,.65.12,1.39,1.39,0,0,1,.47.34,1.42,1.42,0,0,1,.29.49,1.85,1.85,0,0,1,.09.58v3.05h-.74v-2.82a1.51,1.51,0,0,0-.07-.5.88.88,0,0,0-.2-.34.81.81,0,0,0-.29-.19,1.09,1.09,0,0,0-.36-.06,1.25,1.25,0,0,0-.42.08,1.1,1.1,0,0,0-.37.23,1,1,0,0,0-.26.39,1.31,1.31,0,0,0-.11.55v2.66h-.73Z"/><path d="M260.37,313.93a1.4,1.4,0,0,1-.54.44,1.86,1.86,0,0,1-.77.16,1.77,1.77,0,0,1-1.39-.66,2,2,0,0,1-.38-.73,3.23,3.23,0,0,1,0-1.88,2.08,2.08,0,0,1,.38-.74,1.77,1.77,0,0,1,1.39-.66,1.86,1.86,0,0,1,.77.16,1.4,1.4,0,0,1,.54.44v-2.32h.74v6.3h-.74Zm-2.45-1.71a2.27,2.27,0,0,0,.08.65,1.73,1.73,0,0,0,.25.53,1.13,1.13,0,0,0,.4.35,1.16,1.16,0,0,0,.54.12,1.21,1.21,0,0,0,.52-.1,1,1,0,0,0,.37-.27,1.22,1.22,0,0,0,.23-.42,1.72,1.72,0,0,0,.07-.52v-.73a1.72,1.72,0,0,0-.07-.52,1.22,1.22,0,0,0-.23-.42,1,1,0,0,0-.37-.27,1.21,1.21,0,0,0-.52-.1,1.16,1.16,0,0,0-.54.12,1.23,1.23,0,0,0-.4.35,1.73,1.73,0,0,0-.25.53,2.27,2.27,0,0,0-.08.65Z"/><path d="M30.05,324.79a1.54,1.54,0,0,1-.53.38,2,2,0,0,1-1.41.06,1.42,1.42,0,0,1-.5-.27,1.23,1.23,0,0,1-.33-.42,1.32,1.32,0,0,1-.12-.57,1.21,1.21,0,0,1,.09-.48,1.23,1.23,0,0,1,.24-.38,1.19,1.19,0,0,1,.38-.27,1.76,1.76,0,0,1,.49-.14l1.59-.22v-.28a1.1,1.1,0,0,0-.08-.43.75.75,0,0,0-.22-.27.81.81,0,0,0-.31-.15,1.75,1.75,0,0,0-.4,0,2.28,2.28,0,0,0-.7.1,3.61,3.61,0,0,0-.59.25l-.28-.59a3.08,3.08,0,0,1,.81-.31,3.44,3.44,0,0,1,.84-.1,1.85,1.85,0,0,1,1.24.37,1.38,1.38,0,0,1,.42,1.09v2.07a.7.7,0,0,0,.09.37.61.61,0,0,0,.28.24l-.41.53a.87.87,0,0,1-.37-.19.75.75,0,0,1-.21-.32Zm-1.31-1.55a1.54,1.54,0,0,0-.34.08.71.71,0,0,0-.26.13.53.53,0,0,0-.16.2.6.6,0,0,0-.06.29.81.81,0,0,0,.07.35.75.75,0,0,0,.21.26.9.9,0,0,0,.29.16,1.42,1.42,0,0,0,.36.05,1.39,1.39,0,0,0,.4-.06,1,1,0,0,0,.35-.16.77.77,0,0,0,.25-.26.68.68,0,0,0,.1-.35v-.87Z"/><path d="M32,320.75h.74v.51a1.32,1.32,0,0,1,.57-.45,1.79,1.79,0,0,1,.75-.15,1.64,1.64,0,0,1,.65.12,1.39,1.39,0,0,1,.47.34,1.42,1.42,0,0,1,.29.49,1.85,1.85,0,0,1,.09.58v3.05h-.74v-2.82a1.51,1.51,0,0,0-.07-.5,1,1,0,0,0-.2-.34.81.81,0,0,0-.29-.19,1.13,1.13,0,0,0-.78,0,1.1,1.1,0,0,0-.37.23,1.13,1.13,0,0,0-.27.39,1.5,1.5,0,0,0-.1.55v2.66H32Z"/><path d="M36.36,320.75h.84l1.1,3.71,1.06-3.71h.82l-1.63,5.17a1.18,1.18,0,0,1-.19.39,1,1,0,0,1-.27.24,1,1,0,0,1-.34.12,1.61,1.61,0,0,1-.39,0l-.38,0-.42-.06.11-.64.19,0,.19,0h.21a.61.61,0,0,0,.38-.11.59.59,0,0,0,.19-.34l0-.21Z"/><path d="M43.4,320.75v.51a1.4,1.4,0,0,1,.54-.44,1.87,1.87,0,0,1,.78-.16,1.66,1.66,0,0,1,.78.18,1.56,1.56,0,0,1,.6.48,2.27,2.27,0,0,1,.39.74,3.46,3.46,0,0,1,0,1.88,2.22,2.22,0,0,1-.39.73,1.56,1.56,0,0,1-.6.48,1.66,1.66,0,0,1-.78.18,1.87,1.87,0,0,1-.78-.16,1.4,1.4,0,0,1-.54-.44v1.88h-.74v-5.86ZM45.86,323a2.27,2.27,0,0,0-.09-.65,1.51,1.51,0,0,0-.24-.53,1.35,1.35,0,0,0-.4-.35,1.23,1.23,0,0,0-.55-.12,1.21,1.21,0,0,0-.52.1,1,1,0,0,0-.37.27,1.42,1.42,0,0,0-.23.42,1.72,1.72,0,0,0-.07.52v.73a1.72,1.72,0,0,0,.07.52,1.42,1.42,0,0,0,.23.42,1.14,1.14,0,0,0,.37.27,1.21,1.21,0,0,0,.52.1,1.23,1.23,0,0,0,.55-.12,1.35,1.35,0,0,0,.4-.35,1.51,1.51,0,0,0,.24-.53,2.27,2.27,0,0,0,.09-.65Z"/><path d="M48.21,323.22a2.21,2.21,0,0,0,.13.59,1.44,1.44,0,0,0,.29.46,1.19,1.19,0,0,0,.43.3,1.23,1.23,0,0,0,.55.11,1.69,1.69,0,0,0,.66-.12,2.51,2.51,0,0,0,.52-.32l.38.53a2.55,2.55,0,0,1-.7.4,2.35,2.35,0,0,1-.89.16,2.14,2.14,0,0,1-.89-.18,1.79,1.79,0,0,1-.67-.48,2.09,2.09,0,0,1-.43-.74,2.75,2.75,0,0,1-.15-.93,2.81,2.81,0,0,1,.15-.94,2.12,2.12,0,0,1,.41-.74,1.86,1.86,0,0,1,.64-.48,1.9,1.9,0,0,1,.83-.18,1.71,1.71,0,0,1,.8.18,1.67,1.67,0,0,1,.61.48,2.09,2.09,0,0,1,.39.74,3.37,3.37,0,0,1,.13.93v.23Zm1.24-1.91a1,1,0,0,0-.5.11,1.2,1.2,0,0,0-.38.29,1.49,1.49,0,0,0-.24.43,1.66,1.66,0,0,0-.11.49H50.6a2.1,2.1,0,0,0-.09-.5,1.22,1.22,0,0,0-.23-.42,1.21,1.21,0,0,0-.35-.29A1,1,0,0,0,49.45,321.31Z"/><path d="M52.43,320.75h.74v.51a1.35,1.35,0,0,1,.56-.45,1.83,1.83,0,0,1,.75-.15,1.6,1.6,0,0,1,.65.12,1.54,1.54,0,0,1,.48.34,1.39,1.39,0,0,1,.28.49,1.85,1.85,0,0,1,.09.58v3.05h-.74v-2.82a1.51,1.51,0,0,0-.07-.5.88.88,0,0,0-.2-.34.81.81,0,0,0-.29-.19,1,1,0,0,0-.36-.06,1.25,1.25,0,0,0-.42.08,1.2,1.2,0,0,0-.37.23,1,1,0,0,0-.26.39,1.32,1.32,0,0,0-.1.55v2.66h-.74Z"/><path d="M60.3,324a1,1,0,0,1-.14.56,1.22,1.22,0,0,1-.36.42,1.54,1.54,0,0,1-.53.26,2.1,2.1,0,0,1-.61.09,2.74,2.74,0,0,1-.94-.17,2.38,2.38,0,0,1-.81-.49l.4-.52.25.19a1.82,1.82,0,0,0,.31.19,2,2,0,0,0,.37.14,1.4,1.4,0,0,0,.41.06,1.29,1.29,0,0,0,.35-.05.87.87,0,0,0,.29-.14.76.76,0,0,0,.19-.21.54.54,0,0,0,.08-.28.56.56,0,0,0-.08-.3.58.58,0,0,0-.21-.2,1.28,1.28,0,0,0-.31-.15l-.37-.12-.28-.09a3,3,0,0,1-.45-.18,1.53,1.53,0,0,1-.39-.25.92.92,0,0,1-.27-.35,1,1,0,0,1-.1-.48,1.06,1.06,0,0,1,.1-.46,1.11,1.11,0,0,1,.29-.4,1.81,1.81,0,0,1,.51-.3,2.29,2.29,0,0,1,.73-.11,2.18,2.18,0,0,1,.85.16,2.55,2.55,0,0,1,.67.38l-.39.53a2.31,2.31,0,0,0-.23-.18,2.44,2.44,0,0,0-.28-.14,1.63,1.63,0,0,0-.31-.11,1.87,1.87,0,0,0-.32,0,1.22,1.22,0,0,0-.41.06.86.86,0,0,0-.27.14.55.55,0,0,0-.15.2.52.52,0,0,0,0,.21.5.5,0,0,0,.06.26.62.62,0,0,0,.18.18,1.36,1.36,0,0,0,.24.13l.29.1.37.13a4.4,4.4,0,0,1,.48.18,1.82,1.82,0,0,1,.39.23,1.31,1.31,0,0,1,.33.38A1.27,1.27,0,0,1,60.3,324Z"/><path d="M61.3,319.45a.48.48,0,0,1,0-.2.53.53,0,0,1,.27-.27.48.48,0,0,1,.2,0,.45.45,0,0,1,.2,0,.64.64,0,0,1,.16.11.57.57,0,0,1,.11.16.48.48,0,0,1,0,.2.45.45,0,0,1,0,.2.5.5,0,0,1-.11.17.44.44,0,0,1-.16.1.46.46,0,0,1-.2.05.49.49,0,0,1-.2-.05.54.54,0,0,1-.16-.1.71.71,0,0,1-.11-.17A.45.45,0,0,1,61.3,319.45Zm.87,5.79h-.73v-4.49h.73Z"/><path d="M65.32,320.66a2,2,0,0,1,.85.18,1.81,1.81,0,0,1,.65.48,2.14,2.14,0,0,1,.42.74,2.81,2.81,0,0,1,.15.94,2.75,2.75,0,0,1-.15.93,2.23,2.23,0,0,1-.42.74,1.81,1.81,0,0,1-.65.48,2,2,0,0,1-.85.18,1.92,1.92,0,0,1-.84-.18,1.76,1.76,0,0,1-.66-.48,2.23,2.23,0,0,1-.42-.74,2.75,2.75,0,0,1-.15-.93,2.81,2.81,0,0,1,.15-.94,2.14,2.14,0,0,1,.42-.74,1.76,1.76,0,0,1,.66-.48A1.92,1.92,0,0,1,65.32,320.66Zm0,4a1.17,1.17,0,0,0,.57-.13,1.16,1.16,0,0,0,.4-.36,1.62,1.62,0,0,0,.25-.53,2.18,2.18,0,0,0,.09-.63V323a2.25,2.25,0,0,0-.09-.64,1.53,1.53,0,0,0-.25-.53,1.16,1.16,0,0,0-.4-.36,1.17,1.17,0,0,0-.57-.13,1.13,1.13,0,0,0-.56.13,1.19,1.19,0,0,0-.41.36,1.73,1.73,0,0,0-.25.53A2.25,2.25,0,0,0,64,323V323a2.18,2.18,0,0,0,.08.63,1.85,1.85,0,0,0,.25.53,1.19,1.19,0,0,0,.41.36A1.13,1.13,0,0,0,65.32,324.68Z"/><path d="M68.47,320.75h.74v.51a1.32,1.32,0,0,1,.57-.45,1.78,1.78,0,0,1,.74-.15,1.69,1.69,0,0,1,.66.12,1.5,1.5,0,0,1,.47.34,1.26,1.26,0,0,1,.28.49,1.61,1.61,0,0,1,.1.58v3.05h-.74v-2.82a1.51,1.51,0,0,0-.07-.5,1,1,0,0,0-.2-.34.77.77,0,0,0-.3-.19,1,1,0,0,0-.36-.06,1.15,1.15,0,0,0-.41.08,1.1,1.1,0,0,0-.37.23,1.13,1.13,0,0,0-.27.39,1.32,1.32,0,0,0-.1.55v2.66h-.74Z"/><path d="M75.64,323a2.25,2.25,0,0,0,.08.64,1.72,1.72,0,0,0,.24.53,1.29,1.29,0,0,0,.41.36,1.14,1.14,0,0,0,.57.13,1.23,1.23,0,0,0,.39-.06,1.2,1.2,0,0,0,.32-.16.82.82,0,0,0,.25-.24,1.37,1.37,0,0,0,.2-.29l.62.35a1.84,1.84,0,0,1-.3.43,1.6,1.6,0,0,1-.4.33,2.21,2.21,0,0,1-.5.21,2.25,2.25,0,0,1-.58.08,2,2,0,0,1-.85-.18,1.81,1.81,0,0,1-.65-.48,2.29,2.29,0,0,1-.42-.73,2.85,2.85,0,0,1-.15-.94,2.81,2.81,0,0,1,.15-.94,2.14,2.14,0,0,1,.42-.74,1.81,1.81,0,0,1,.65-.48,2,2,0,0,1,.85-.18,2.25,2.25,0,0,1,.58.08,2.21,2.21,0,0,1,.5.21,1.6,1.6,0,0,1,.4.33,1.84,1.84,0,0,1,.3.43l-.62.35a1.37,1.37,0,0,0-.2-.29.82.82,0,0,0-.25-.24,1.2,1.2,0,0,0-.32-.16,1.23,1.23,0,0,0-.39-.06,1.14,1.14,0,0,0-.57.13,1.29,1.29,0,0,0-.41.36,1.72,1.72,0,0,0-.24.53,2.25,2.25,0,0,0-.08.64Z"/><path d="M81.5,320.66a2,2,0,0,1,.85.18,1.81,1.81,0,0,1,.65.48,2.14,2.14,0,0,1,.42.74,2.81,2.81,0,0,1,.15.94,2.75,2.75,0,0,1-.15.93,2.23,2.23,0,0,1-.42.74,1.81,1.81,0,0,1-.65.48,2,2,0,0,1-.85.18,2,2,0,0,1-.85-.18,1.81,1.81,0,0,1-.65-.48,2.23,2.23,0,0,1-.42-.74,2.75,2.75,0,0,1-.15-.93,2.81,2.81,0,0,1,.15-.94,2.14,2.14,0,0,1,.42-.74,1.81,1.81,0,0,1,.65-.48A2,2,0,0,1,81.5,320.66Zm0,4a1.13,1.13,0,0,0,.56-.13,1.29,1.29,0,0,0,.41-.36,1.85,1.85,0,0,0,.25-.53,2.18,2.18,0,0,0,.08-.63V323a2.25,2.25,0,0,0-.08-.64,1.73,1.73,0,0,0-.25-.53,1.29,1.29,0,0,0-.41-.36,1.13,1.13,0,0,0-.56-.13,1.17,1.17,0,0,0-.57.13,1.29,1.29,0,0,0-.41.36,1.51,1.51,0,0,0-.24.53,2.25,2.25,0,0,0-.09.64V323a2.18,2.18,0,0,0,.09.63,1.6,1.6,0,0,0,.24.53,1.29,1.29,0,0,0,.41.36A1.17,1.17,0,0,0,81.5,324.68Z"/><path d="M84.65,320.75h.74v.51a1.35,1.35,0,0,1,.56-.45,1.86,1.86,0,0,1,.75-.15,1.69,1.69,0,0,1,.66.12,1.62,1.62,0,0,1,.47.34,1.39,1.39,0,0,1,.28.49,1.85,1.85,0,0,1,.09.58v3.05h-.73v-2.82a1.5,1.5,0,0,0-.08-.5,1,1,0,0,0-.19-.34,1,1,0,0,0-.3-.19,1,1,0,0,0-.36-.06,1.25,1.25,0,0,0-.42.08,1.2,1.2,0,0,0-.37.23,1.11,1.11,0,0,0-.26.39,1.32,1.32,0,0,0-.1.55v2.66h-.74Z"/><path d="M90.68,324.12a1.55,1.55,0,0,0,0,.22.38.38,0,0,0,.08.17.43.43,0,0,0,.17.12.9.9,0,0,0,.31,0h.28l.15,0,.13,0,.08.65-.26,0-.26,0h-.28a1.75,1.75,0,0,1-.48-.06.86.86,0,0,1-.36-.17.79.79,0,0,1-.23-.33,1.34,1.34,0,0,1-.08-.48V321.4h-.85v-.65h.85v-1.47l.74-.26v1.73h1.25v.65H90.68Z"/><path d="M95.13,321.41H95a2.38,2.38,0,0,0-.55.06,1.35,1.35,0,0,0-.46.24,1.24,1.24,0,0,0-.31.47,2.05,2.05,0,0,0-.12.76v2.3h-.74v-4.49h.74v.71a1.15,1.15,0,0,1,.22-.35,1.22,1.22,0,0,1,.32-.24,1.37,1.37,0,0,1,.38-.15,2,2,0,0,1,.42-.05h.21Z"/><path d="M95.86,319.45a.71.71,0,0,1,0-.2.61.61,0,0,1,.12-.16.5.5,0,0,1,.16-.11.45.45,0,0,1,.2,0,.48.48,0,0,1,.2,0,.53.53,0,0,1,.27.27.71.71,0,0,1,0,.2.65.65,0,0,1,0,.2.71.71,0,0,1-.11.17.54.54,0,0,1-.16.1.49.49,0,0,1-.2.05.46.46,0,0,1-.2-.05.37.37,0,0,1-.16-.1.52.52,0,0,1-.12-.17A.65.65,0,0,1,95.86,319.45Zm.88,5.79H96v-4.49h.74Z"/><path d="M98.83,325.24h-.74v-6.3h.74v2.32a1.44,1.44,0,0,1,.53-.44,1.94,1.94,0,0,1,.78-.16,1.77,1.77,0,0,1,1.39.66,2.46,2.46,0,0,1,.38.74,3.23,3.23,0,0,1,0,1.88,2.41,2.41,0,0,1-.38.73,1.77,1.77,0,0,1-1.39.66,1.94,1.94,0,0,1-.78-.16,1.44,1.44,0,0,1-.53-.44Zm2.45-2.27a2.69,2.69,0,0,0-.08-.65,1.73,1.73,0,0,0-.25-.53,1.35,1.35,0,0,0-.4-.35,1.2,1.2,0,0,0-.55-.12,1.16,1.16,0,0,0-.51.1.94.94,0,0,0-.37.27,1.22,1.22,0,0,0-.23.42,1.72,1.72,0,0,0-.08.52v.73a1.72,1.72,0,0,0,.08.52,1.22,1.22,0,0,0,.23.42,1,1,0,0,0,.37.27,1.16,1.16,0,0,0,.51.1,1.2,1.2,0,0,0,.55-.12,1.35,1.35,0,0,0,.4-.35,1.73,1.73,0,0,0,.25-.53,2.69,2.69,0,0,0,.08-.65Z"/><path d="M106.65,325.24h-.74v-.51a1.35,1.35,0,0,1-.56.45,1.83,1.83,0,0,1-.75.15,1.69,1.69,0,0,1-.66-.12,1.62,1.62,0,0,1-.47-.34,1.39,1.39,0,0,1-.28-.49,1.85,1.85,0,0,1-.09-.58v-3.05h.74v2.82a1.47,1.47,0,0,0,.07.5.88.88,0,0,0,.2.34.81.81,0,0,0,.29.19,1,1,0,0,0,.36.06,1.32,1.32,0,0,0,.44-.08,1,1,0,0,0,.62-.62,1.51,1.51,0,0,0,.09-.55v-2.66h.74Z"/><path d="M109.17,324.12a1.55,1.55,0,0,0,0,.22.38.38,0,0,0,.08.17.37.37,0,0,0,.17.12.9.9,0,0,0,.31,0H110l.15,0,.13,0,.08.65-.27,0-.25,0h-.28a1.75,1.75,0,0,1-.48-.06.8.8,0,0,1-.36-.17.79.79,0,0,1-.23-.33,1.15,1.15,0,0,1-.08-.48V321.4h-.85v-.65h.85v-1.47l.74-.26v1.73h1.24v.65h-1.24Z"/><path d="M111.19,319.45a.71.71,0,0,1,0-.2.91.91,0,0,1,.11-.16.71.71,0,0,1,.17-.11.45.45,0,0,1,.2,0,.41.41,0,0,1,.19,0,.64.64,0,0,1,.16.11.42.42,0,0,1,.11.16.49.49,0,0,1,0,.2.46.46,0,0,1,0,.2.39.39,0,0,1-.11.17.44.44,0,0,1-.16.1.41.41,0,0,1-.19.05.46.46,0,0,1-.2-.05.48.48,0,0,1-.17-.1.71.71,0,0,1-.11-.17A.65.65,0,0,1,111.19,319.45Zm.88,5.79h-.74v-4.49h.74Z"/><path d="M115.21,320.66a2,2,0,0,1,.85.18,1.72,1.72,0,0,1,.65.48,2.14,2.14,0,0,1,.42.74,2.81,2.81,0,0,1,.15.94,2.75,2.75,0,0,1-.15.93,2.23,2.23,0,0,1-.42.74,1.72,1.72,0,0,1-.65.48,2,2,0,0,1-.85.18,1.92,1.92,0,0,1-.84-.18,1.84,1.84,0,0,1-.66-.48,2.23,2.23,0,0,1-.42-.74,2.75,2.75,0,0,1-.15-.93,2.81,2.81,0,0,1,.15-.94,2.14,2.14,0,0,1,.42-.74,1.84,1.84,0,0,1,.66-.48A1.92,1.92,0,0,1,115.21,320.66Zm0,4a1.17,1.17,0,0,0,.57-.13,1.29,1.29,0,0,0,.41-.36,1.6,1.6,0,0,0,.24-.53,2.18,2.18,0,0,0,.09-.63V323a2.25,2.25,0,0,0-.09-.64,1.51,1.51,0,0,0-.24-.53,1.29,1.29,0,0,0-.41-.36,1.17,1.17,0,0,0-.57-.13,1.13,1.13,0,0,0-.56.13,1.29,1.29,0,0,0-.41.36,1.73,1.73,0,0,0-.25.53,2.67,2.67,0,0,0-.08.64V323a2.59,2.59,0,0,0,.08.63,1.85,1.85,0,0,0,.25.53,1.29,1.29,0,0,0,.41.36A1.13,1.13,0,0,0,115.21,324.68Z"/><path d="M118.36,320.75h.74v.51a1.32,1.32,0,0,1,.57-.45,1.79,1.79,0,0,1,.75-.15,1.67,1.67,0,0,1,.65.12,1.5,1.5,0,0,1,.47.34,1.26,1.26,0,0,1,.28.49,1.61,1.61,0,0,1,.1.58v3.05h-.74v-2.82a1.51,1.51,0,0,0-.07-.5,1,1,0,0,0-.2-.34.81.81,0,0,0-.29-.19,1.13,1.13,0,0,0-.78,0,1.1,1.1,0,0,0-.37.23,1.13,1.13,0,0,0-.27.39,1.5,1.5,0,0,0-.1.55v2.66h-.74Z"/><path d="M126.24,324a1.13,1.13,0,0,1-.14.56,1.15,1.15,0,0,1-.37.42,1.5,1.5,0,0,1-.52.26,2.1,2.1,0,0,1-.61.09,2.8,2.8,0,0,1-.95-.17,2.43,2.43,0,0,1-.8-.49l.4-.52a2.51,2.51,0,0,0,.24.19l.31.19a2.35,2.35,0,0,0,.37.14,1.42,1.42,0,0,0,.42.06,1.34,1.34,0,0,0,.35-.05.82.82,0,0,0,.28-.14.66.66,0,0,0,.2-.21.53.53,0,0,0,.07-.28.48.48,0,0,0-.08-.3.64.64,0,0,0-.2-.2,1.28,1.28,0,0,0-.31-.15l-.37-.12-.28-.09a3.66,3.66,0,0,1-.46-.18,1.53,1.53,0,0,1-.39-.25,1,1,0,0,1-.37-.83,1.23,1.23,0,0,1,.1-.46,1.14,1.14,0,0,1,.3-.4,1.56,1.56,0,0,1,.51-.3,2.18,2.18,0,0,1,.72-.11,2.23,2.23,0,0,1,.86.16,2.33,2.33,0,0,1,.66.38l-.39.53a2.13,2.13,0,0,0-.22-.18l-.29-.14a1.42,1.42,0,0,0-.31-.11,1.75,1.75,0,0,0-.32,0,1.22,1.22,0,0,0-.41.06.71.71,0,0,0-.26.14.55.55,0,0,0-.15.2.54.54,0,0,0,0,.21.42.42,0,0,0,.07.26.58.58,0,0,0,.17.18,1.17,1.17,0,0,0,.25.13l.29.1.36.13a4.6,4.6,0,0,1,.49.18,2,2,0,0,1,.38.23,1.18,1.18,0,0,1,.33.38A1.13,1.13,0,0,1,126.24,324Z"/><path d="M129.17,318.94h.74v2.32a1.32,1.32,0,0,1,.57-.45,1.79,1.79,0,0,1,.75-.15,1.64,1.64,0,0,1,.65.12,1.39,1.39,0,0,1,.47.34,1.26,1.26,0,0,1,.28.49,1.61,1.61,0,0,1,.1.58v3.05H132v-2.82a1.51,1.51,0,0,0-.07-.5,1,1,0,0,0-.2-.34.81.81,0,0,0-.29-.19,1.13,1.13,0,0,0-.78,0,1.1,1.1,0,0,0-.37.23,1.13,1.13,0,0,0-.27.39,1.5,1.5,0,0,0-.1.55v2.66h-.74Z"/><path d="M136.6,324.79a1.58,1.58,0,0,1-.54.38,1.74,1.74,0,0,1-.79.16,1.79,1.79,0,0,1-.62-.1,1.37,1.37,0,0,1-.49-.27,1.23,1.23,0,0,1-.33-.42,1.32,1.32,0,0,1-.12-.57,1.21,1.21,0,0,1,.09-.48,1,1,0,0,1,.24-.38,1.26,1.26,0,0,1,.37-.27,1.86,1.86,0,0,1,.49-.14l1.59-.22v-.28a1.1,1.1,0,0,0-.08-.43.64.64,0,0,0-.21-.27.86.86,0,0,0-.32-.15,1.61,1.61,0,0,0-.39,0,2.34,2.34,0,0,0-.71.1,4.55,4.55,0,0,0-.59.25l-.27-.59a2.83,2.83,0,0,1,.81-.31,3.42,3.42,0,0,1,.83-.1,1.88,1.88,0,0,1,1.25.37,1.38,1.38,0,0,1,.42,1.09v2.07a.7.7,0,0,0,.09.37.61.61,0,0,0,.28.24l-.42.53a.89.89,0,0,1-.36-.19.75.75,0,0,1-.21-.32Zm-1.32-1.55a1.59,1.59,0,0,0-.33.08.64.64,0,0,0-.26.13.55.55,0,0,0-.17.2.6.6,0,0,0-.06.29.82.82,0,0,0,.08.35.86.86,0,0,0,.2.26,1.08,1.08,0,0,0,.3.16,1.34,1.34,0,0,0,.35.05,1.45,1.45,0,0,0,.41-.06,1,1,0,0,0,.35-.16,1,1,0,0,0,.25-.26.68.68,0,0,0,.09-.35v-.87Z"/><path d="M139.49,325.24l-1.43-4.49h.84l1.08,3.8,1.07-3.8h.84l-1.42,4.49Z"/><path d="M143.2,323.22a1.88,1.88,0,0,0,.12.59,1.44,1.44,0,0,0,.29.46,1.28,1.28,0,0,0,.43.3,1.26,1.26,0,0,0,.55.11,1.69,1.69,0,0,0,.66-.12,2.51,2.51,0,0,0,.52-.32l.38.53a2.41,2.41,0,0,1-.7.4,2.31,2.31,0,0,1-.89.16,2.07,2.07,0,0,1-.88-.18,1.83,1.83,0,0,1-.68-.48,2.25,2.25,0,0,1-.43-.74,2.75,2.75,0,0,1-.15-.93,2.81,2.81,0,0,1,.15-.94,2.14,2.14,0,0,1,.42-.74,1.69,1.69,0,0,1,.64-.48,1.87,1.87,0,0,1,.83-.18,1.77,1.77,0,0,1,.8.18,1.56,1.56,0,0,1,.6.48,2.09,2.09,0,0,1,.39.74,3,3,0,0,1,.13.93v.23Zm1.23-1.91a1,1,0,0,0-.5.11,1.06,1.06,0,0,0-.37.29,1.31,1.31,0,0,0-.25.43,1.38,1.38,0,0,0-.1.49h2.37a1.43,1.43,0,0,0-.09-.5,1.22,1.22,0,0,0-.23-.42,1,1,0,0,0-.35-.29A1,1,0,0,0,144.43,321.31Z"/><path d="M150,325.24h-.74v-6.3H150v2.32a1.4,1.4,0,0,1,.54-.44,1.87,1.87,0,0,1,.78-.16,1.66,1.66,0,0,1,.78.18,1.56,1.56,0,0,1,.6.48,2.27,2.27,0,0,1,.39.74,3.46,3.46,0,0,1,0,1.88,2.22,2.22,0,0,1-.39.73,1.56,1.56,0,0,1-.6.48,1.66,1.66,0,0,1-.78.18,1.87,1.87,0,0,1-.78-.16,1.4,1.4,0,0,1-.54-.44Zm2.46-2.27a2.27,2.27,0,0,0-.09-.65,1.51,1.51,0,0,0-.24-.53,1.35,1.35,0,0,0-.4-.35,1.23,1.23,0,0,0-.55-.12,1.21,1.21,0,0,0-.52.1,1,1,0,0,0-.37.27,1.42,1.42,0,0,0-.23.42,1.72,1.72,0,0,0-.07.52v.73a1.72,1.72,0,0,0,.07.52,1.42,1.42,0,0,0,.23.42,1.14,1.14,0,0,0,.37.27,1.21,1.21,0,0,0,.52.1,1.23,1.23,0,0,0,.55-.12,1.35,1.35,0,0,0,.4-.35,1.51,1.51,0,0,0,.24-.53,2.27,2.27,0,0,0,.09-.65Z"/><path d="M154.76,323.22a2.21,2.21,0,0,0,.13.59,1.44,1.44,0,0,0,.29.46,1.19,1.19,0,0,0,.43.3,1.23,1.23,0,0,0,.55.11,1.69,1.69,0,0,0,.66-.12,2.51,2.51,0,0,0,.52-.32l.38.53a2.55,2.55,0,0,1-.7.4,2.35,2.35,0,0,1-.89.16,2.14,2.14,0,0,1-.89-.18,1.79,1.79,0,0,1-.67-.48,2.09,2.09,0,0,1-.43-.74A2.75,2.75,0,0,1,154,323a2.81,2.81,0,0,1,.15-.94,2.12,2.12,0,0,1,.41-.74,1.77,1.77,0,0,1,.64-.48,1.9,1.9,0,0,1,.83-.18,1.71,1.71,0,0,1,.8.18,1.67,1.67,0,0,1,.61.48,2.09,2.09,0,0,1,.39.74,3.37,3.37,0,0,1,.13.93v.23Zm1.24-1.91a1,1,0,0,0-.5.11,1.2,1.2,0,0,0-.38.29,1.49,1.49,0,0,0-.24.43,1.66,1.66,0,0,0-.11.49h2.38a2.1,2.1,0,0,0-.09-.5,1.22,1.22,0,0,0-.23-.42,1.21,1.21,0,0,0-.35-.29A1,1,0,0,0,156,321.31Z"/><path d="M159.48,323.22a1.88,1.88,0,0,0,.13.59,1.42,1.42,0,0,0,.28.46,1.39,1.39,0,0,0,.43.3,1.27,1.27,0,0,0,.56.11,1.64,1.64,0,0,0,.65-.12,2.27,2.27,0,0,0,.52-.32l.38.53a2.52,2.52,0,0,1-1.59.56,2.1,2.1,0,0,1-.88-.18,1.83,1.83,0,0,1-.68-.48,2.25,2.25,0,0,1-.43-.74,3,3,0,0,1-.14-.93,2.81,2.81,0,0,1,.14-.94,2.14,2.14,0,0,1,.42-.74,1.77,1.77,0,0,1,.64-.48,1.9,1.9,0,0,1,.83-.18,1.74,1.74,0,0,1,.8.18,1.67,1.67,0,0,1,.61.48,2.25,2.25,0,0,1,.38.74,3,3,0,0,1,.13.93v.23Zm1.23-1.91a1,1,0,0,0-.5.11,1.16,1.16,0,0,0-.37.29,1.31,1.31,0,0,0-.25.43,1.64,1.64,0,0,0-.1.49h2.37a1.43,1.43,0,0,0-.09-.5,1.4,1.4,0,0,0-.22-.42,1.12,1.12,0,0,0-.36-.29A1,1,0,0,0,160.71,321.31Z"/><path d="M163.69,320.75h.74v.51a1.32,1.32,0,0,1,.57-.45,1.79,1.79,0,0,1,.75-.15,1.67,1.67,0,0,1,.65.12,1.5,1.5,0,0,1,.47.34,1.26,1.26,0,0,1,.28.49,1.61,1.61,0,0,1,.1.58v3.05h-.74v-2.82a1.51,1.51,0,0,0-.07-.5,1,1,0,0,0-.2-.34.77.77,0,0,0-.3-.19,1,1,0,0,0-.36-.06,1.15,1.15,0,0,0-.41.08,1.1,1.1,0,0,0-.37.23,1.13,1.13,0,0,0-.27.39,1.32,1.32,0,0,0-.1.55v2.66h-.74Z"/><path d="M173.32,324.73a1.4,1.4,0,0,1-.54.44,1.86,1.86,0,0,1-.77.16,1.77,1.77,0,0,1-1.39-.66,2.22,2.22,0,0,1-.39-.73,3.46,3.46,0,0,1,0-1.88,2.27,2.27,0,0,1,.39-.74,1.77,1.77,0,0,1,1.39-.66,1.86,1.86,0,0,1,.77.16,1.4,1.4,0,0,1,.54.44v-2.32h.74v6.3h-.74ZM170.86,323a2.27,2.27,0,0,0,.09.65,1.72,1.72,0,0,0,.24.53,1.48,1.48,0,0,0,.4.35,1.23,1.23,0,0,0,.55.12,1.21,1.21,0,0,0,.52-.1,1.14,1.14,0,0,0,.37-.27,1.22,1.22,0,0,0,.23-.42,1.72,1.72,0,0,0,.07-.52v-.73a1.72,1.72,0,0,0-.07-.52,1.22,1.22,0,0,0-.23-.42,1,1,0,0,0-.37-.27,1.21,1.21,0,0,0-.52-.1,1.23,1.23,0,0,0-.55.12,1.48,1.48,0,0,0-.4.35,1.72,1.72,0,0,0-.24.53,2.27,2.27,0,0,0-.09.65Z"/><path d="M175.91,323.22a2.21,2.21,0,0,0,.13.59,1.44,1.44,0,0,0,.29.46,1.19,1.19,0,0,0,.43.3,1.26,1.26,0,0,0,.55.11,1.69,1.69,0,0,0,.66-.12,2.51,2.51,0,0,0,.52-.32l.38.53a2.41,2.41,0,0,1-.7.4,2.35,2.35,0,0,1-.89.16,2.14,2.14,0,0,1-.89-.18,1.79,1.79,0,0,1-.67-.48,2.09,2.09,0,0,1-.43-.74,2.75,2.75,0,0,1-.15-.93,2.81,2.81,0,0,1,.15-.94,2.12,2.12,0,0,1,.41-.74,1.86,1.86,0,0,1,.64-.48,1.92,1.92,0,0,1,.84-.18,1.77,1.77,0,0,1,.8.18,1.72,1.72,0,0,1,.6.48,2.09,2.09,0,0,1,.39.74,3,3,0,0,1,.13.93v.23Zm1.24-1.91a1,1,0,0,0-.5.11,1.2,1.2,0,0,0-.38.29,1.49,1.49,0,0,0-.24.43,1.66,1.66,0,0,0-.11.49h2.38a2.1,2.1,0,0,0-.09-.5,1.22,1.22,0,0,0-.23-.42,1.21,1.21,0,0,0-.35-.29A1,1,0,0,0,177.15,321.31Z"/><path d="M183.09,324.73a1.56,1.56,0,0,1-.54.44,1.94,1.94,0,0,1-.78.16,1.81,1.81,0,0,1-1.39-.66,2.41,2.41,0,0,1-.38-.73,3.23,3.23,0,0,1,0-1.88,2.46,2.46,0,0,1,.38-.74,1.81,1.81,0,0,1,1.39-.66,1.94,1.94,0,0,1,.78.16,1.56,1.56,0,0,1,.54.44v-2.32h.73v6.3h-.73ZM180.63,323a2.69,2.69,0,0,0,.08.65,1.73,1.73,0,0,0,.25.53,1.35,1.35,0,0,0,.4.35,1.2,1.2,0,0,0,.55.12,1.16,1.16,0,0,0,.51-.1,1.19,1.19,0,0,0,.38-.27,1.2,1.2,0,0,0,.22-.42,1.72,1.72,0,0,0,.07-.52v-.73a1.72,1.72,0,0,0-.07-.52,1.2,1.2,0,0,0-.22-.42,1.05,1.05,0,0,0-.38-.27,1.16,1.16,0,0,0-.51-.1,1.2,1.2,0,0,0-.55.12,1.35,1.35,0,0,0-.4.35,1.73,1.73,0,0,0-.25.53,2.69,2.69,0,0,0-.08.65Z"/><path d="M188.69,325.24H188v-.51a1.45,1.45,0,0,1-.57.45,1.79,1.79,0,0,1-.75.15,1.6,1.6,0,0,1-.65-.12,1.39,1.39,0,0,1-.47-.34,1.42,1.42,0,0,1-.29-.49,1.85,1.85,0,0,1-.09-.58v-3.05h.74v2.82a1.47,1.47,0,0,0,.07.5.88.88,0,0,0,.2.34.81.81,0,0,0,.29.19,1,1,0,0,0,.36.06,1.27,1.27,0,0,0,.44-.08,1,1,0,0,0,.62-.62,1.5,1.5,0,0,0,.1-.55v-2.66h.73Z"/><path d="M190.54,323a2.67,2.67,0,0,0,.08.64,1.73,1.73,0,0,0,.25.53,1.19,1.19,0,0,0,.41.36,1.13,1.13,0,0,0,.56.13,1.18,1.18,0,0,0,.39-.06,1.07,1.07,0,0,0,.32-.16,1,1,0,0,0,.26-.24,1.81,1.81,0,0,0,.19-.29l.62.35a1.8,1.8,0,0,1-.29.43,1.86,1.86,0,0,1-.41.33,2,2,0,0,1-.5.21,2.14,2.14,0,0,1-.58.08,1.92,1.92,0,0,1-.84-.18,1.72,1.72,0,0,1-.65-.48,2.14,2.14,0,0,1-.43-.73,2.85,2.85,0,0,1-.15-.94,2.81,2.81,0,0,1,.15-.94,2,2,0,0,1,.43-.74,1.72,1.72,0,0,1,.65-.48,1.92,1.92,0,0,1,.84-.18,2.14,2.14,0,0,1,.58.08,2,2,0,0,1,.5.21,1.86,1.86,0,0,1,.41.33,1.8,1.8,0,0,1,.29.43l-.62.35a1.81,1.81,0,0,0-.19-.29,1,1,0,0,0-.26-.24,1.07,1.07,0,0,0-.32-.16,1.18,1.18,0,0,0-.39-.06,1.13,1.13,0,0,0-.56.13,1.19,1.19,0,0,0-.41.36,1.73,1.73,0,0,0-.25.53,2.67,2.67,0,0,0-.08.64Z"/><path d="M195.81,324.12a1.55,1.55,0,0,0,0,.22.38.38,0,0,0,.08.17.43.43,0,0,0,.17.12.9.9,0,0,0,.31,0h.28l.15,0,.13,0,.08.65-.26,0-.26,0h-.28a1.75,1.75,0,0,1-.48-.06.86.86,0,0,1-.36-.17.79.79,0,0,1-.23-.33,1.34,1.34,0,0,1-.08-.48V321.4h-.85v-.65h.85v-1.47l.74-.26v1.73h1.25v.65h-1.25Z"/><path d="M198.47,323.22a2.21,2.21,0,0,0,.13.59,1.29,1.29,0,0,0,.29.46,1.19,1.19,0,0,0,.43.3,1.23,1.23,0,0,0,.55.11,1.69,1.69,0,0,0,.66-.12,2.8,2.8,0,0,0,.52-.32l.37.53a2.52,2.52,0,0,1-1.59.56,2.1,2.1,0,0,1-.88-.18,1.79,1.79,0,0,1-.67-.48,2.09,2.09,0,0,1-.43-.74,2.75,2.75,0,0,1-.15-.93,2.81,2.81,0,0,1,.15-.94,2,2,0,0,1,.41-.74,1.77,1.77,0,0,1,.64-.48,1.9,1.9,0,0,1,.83-.18,1.71,1.71,0,0,1,.8.18,1.67,1.67,0,0,1,.61.48,2.07,2.07,0,0,1,.38.74,3,3,0,0,1,.14.93v.23Zm1.24-1.91a1,1,0,0,0-.5.11,1.1,1.1,0,0,0-.38.29,1.52,1.52,0,0,0-.25.43,1.64,1.64,0,0,0-.1.49h2.38a2.1,2.1,0,0,0-.09-.5,1.42,1.42,0,0,0-.23-.42,1.12,1.12,0,0,0-.36-.29A.93.93,0,0,0,199.71,321.31Z"/><path d="M205.64,324.73a1.4,1.4,0,0,1-.54.44,1.86,1.86,0,0,1-.77.16,1.77,1.77,0,0,1-1.39-.66,2.2,2.2,0,0,1-.38-.73,3.23,3.23,0,0,1,0-1.88,2.25,2.25,0,0,1,.38-.74,1.77,1.77,0,0,1,1.39-.66,1.86,1.86,0,0,1,.77.16,1.4,1.4,0,0,1,.54.44v-2.32h.74v6.3h-.74ZM203.19,323a2.27,2.27,0,0,0,.08.65,1.73,1.73,0,0,0,.25.53,1.23,1.23,0,0,0,.4.35,1.18,1.18,0,0,0,.55.12,1.19,1.19,0,0,0,.51-.1,1.14,1.14,0,0,0,.37-.27,1.22,1.22,0,0,0,.23-.42,1.72,1.72,0,0,0,.07-.52v-.73a1.72,1.72,0,0,0-.07-.52,1.22,1.22,0,0,0-.23-.42,1,1,0,0,0-.37-.27,1.19,1.19,0,0,0-.51-.1,1.18,1.18,0,0,0-.55.12,1.23,1.23,0,0,0-.4.35,1.73,1.73,0,0,0-.25.53,2.27,2.27,0,0,0-.08.65Z"/><path d="M207.74,324.82a.45.45,0,0,1,0-.2.53.53,0,0,1,.27-.27.41.41,0,0,1,.19-.05.42.42,0,0,1,.2.05.39.39,0,0,1,.17.11.5.5,0,0,1,.15.36.71.71,0,0,1,0,.2.91.91,0,0,1-.11.16.71.71,0,0,1-.17.11.59.59,0,0,1-.2,0,.58.58,0,0,1-.19,0,.64.64,0,0,1-.16-.11.42.42,0,0,1-.11-.16A.48.48,0,0,1,207.74,324.82Z"/></svg>